<?xml version="1.0" encoding="UTF-8"?>
<svg xmlns="http://www.w3.org/2000/svg" xmlns:xlink="http://www.w3.org/1999/xlink" width="38px" height="38px" viewBox="0 0 38 38" version="1.1">
<g id="surface1">
<path style=" stroke:none;fill-rule:evenodd;fill:rgb(0%,47.45098%,74.509804%);fill-opacity:1;" d="M 21.460938 30.308594 C 27.632812 30.335938 33.273438 25.273438 33.273438 19.109375 C 33.273438 12.371094 27.632812 7.714844 21.460938 7.71875 L 16.144531 7.71875 C 9.898438 7.714844 4.753906 12.375 4.753906 19.109375 C 4.753906 25.273438 9.898438 30.335938 16.144531 30.308594 Z M 21.460938 30.308594 "/>
<path style=" stroke:none;fill-rule:evenodd;fill:rgb(100%,100%,99.607843%);fill-opacity:1;" d="M 16.171875 8.652344 C 10.460938 8.652344 5.832031 13.28125 5.832031 18.992188 C 5.832031 24.703125 10.460938 29.328125 16.171875 29.332031 C 21.882812 29.328125 26.511719 24.703125 26.511719 18.992188 C 26.511719 13.28125 21.882812 8.652344 16.171875 8.652344 Z M 16.171875 8.652344 "/>
<path style=" stroke:none;fill-rule:evenodd;fill:rgb(0%,47.45098%,74.509804%);fill-opacity:1;" d="M 9.617188 18.992188 C 9.625 16.199219 11.367188 13.820312 13.824219 12.875 L 13.824219 25.109375 C 11.367188 24.164062 9.625 21.78125 9.617188 18.992188 Z M 9.617188 18.992188 "/>
<path style=" stroke:none;fill-rule:evenodd;fill:rgb(0%,47.45098%,74.509804%);fill-opacity:1;" d="M 18.515625 25.109375 L 18.515625 12.875 C 20.976562 13.816406 22.722656 16.199219 22.726562 18.992188 C 22.722656 21.785156 20.976562 24.164062 18.515625 25.109375 Z M 18.515625 25.109375 "/>
</g>
</svg>
