<svg xmlns="http://www.w3.org/2000/svg" width="26" height="26" viewBox="0 0 26 26">
  <rect x="1.13" y="1.13" width="23.75" height="23.75" fill="#fdc82f"/>
  <path d="M14.8,4.82a7.11,7.11,0,0,0-6.7,5.58A4.5,4.5,0,0,0,12.67,16a7.1,7.1,0,0,0,6.69-5.58A4.5,4.5,0,0,0,14.8,4.82Zm4.09,5.58a6.56,6.56,0,0,1-5.57,5.09c-.21,0-.21-.13-.22-.3,0-.37,0-.73,0-1.1,0-.05,0-.07,0-.08a4.12,4.12,0,0,1-.8-.17,5,5,0,0,1-.86-.46c-.13-.06-.11-.37-.11-.49s.18-.72.44-.74.45.15.76.29a2.29,2.29,0,0,0,1.84.14.47.47,0,0,0,.21-.66c-.22-.45-1.25-.82-1.72-1.05a2.35,2.35,0,0,1-1.55-2.61,2.11,2.11,0,0,1,1.79-1.62V6.24a6,6,0,0,0-2.53,1.59,5.44,5.44,0,0,0-1.68,3.88,3.94,3.94,0,0,0,2.18,3.51A4.12,4.12,0,0,1,8.58,10.4,6.54,6.54,0,0,1,14.36,5.3c.11.06.11.07.17.22,0,.34,0,.68-.07,1a3.1,3.1,0,0,1,1.45.61c0,.78-.57,1.11-.8,1A8.11,8.11,0,0,0,14,7.82a1.13,1.13,0,0,0-.67.08c-.26.12-.39.31-.26.6a1.22,1.22,0,0,0,.48.48l1.69.92a2.57,2.57,0,0,1,1.06,1.06,2.25,2.25,0,0,1,.1,1.3,2.1,2.1,0,0,1-1,1.32,2.89,2.89,0,0,1-.87.33c0,.18,0,.36,0,.54a.09.09,0,0,0,.07,0,6.37,6.37,0,0,0,1.75-1,6,6,0,0,0,1.72-2.13,5.19,5.19,0,0,0,.51-1.61,3.85,3.85,0,0,0-2.3-4.2A4.11,4.11,0,0,1,18.89,10.4Z M19.82,17.54l-.67,2c-.07-.07-.58-1.36-.68-1.58a.66.66,0,0,0-.71-.43H16.64v-.81a4.54,4.54,0,0,0-.61.19v.61h-.49V18H16v1.63a.9.9,0,0,0,.06.31c.22.48,1,.44,1.42.15l-.2-.41a.77.77,0,0,1-.52.11c-.18-.05-.17-.27-.17-.48V18h1.23l1,2.25a1.62,1.62,0,0,1-.25.55c-.34.48-.66.28-.93.22l-.14.49a1.25,1.25,0,0,0,1.37-.21,3.47,3.47,0,0,0,.59-1.17l.95-2.62Z M10.42,16.78l.11-.48a1.17,1.17,0,0,0-.94,0,.83.83,0,0,0-.45.67v.6H8.66l.19.47h.3v2.23a2.94,2.94,0,0,0,.6,0V18h.55l.19-.48H9.74C9.74,16.76,9.74,16.63,10.42,16.78Z M14.23,19.75a1,1,0,0,1,.05-1.7,1.07,1.07,0,0,1,.81,0l.22.11v-.52a1.58,1.58,0,0,0-1.07-.14A1.42,1.42,0,0,0,13.18,19a1.4,1.4,0,0,0,2.25,1.09,2,2,0,0,0-.18-.41A1.13,1.13,0,0,1,14.23,19.75Z M7.78,17.53a1.24,1.24,0,0,0-1,.09c-.95.57-.9,2.73.76,2.71a1.55,1.55,0,0,0,.91-.26l-.17-.4a3.68,3.68,0,0,1-.46.16.8.8,0,0,1-1-.77H8.57C8.57,18.45,8.47,17.75,7.78,17.53Zm-1,1.09c0-.37.18-.67.57-.67s.55.3.57.68Z M11.71,17.48c-.9,0-1.25.75-1.21,1.54a1.35,1.35,0,0,0,1.81,1.26,3.76,3.76,0,0,0,.47-.19l-.17-.43a1.38,1.38,0,0,1-1,.13.76.76,0,0,1-.5-.74h1.75C12.87,18.26,12.63,17.48,11.71,17.48Zm-.6,1.15c0-.37.2-.68.58-.68s.55.32.55.68Z" fill="#000100"/>
</svg>
