<?xml version="1.0" encoding="UTF-8"?>
<svg xmlns="http://www.w3.org/2000/svg" xmlns:xlink="http://www.w3.org/1999/xlink" width="38px" height="38px" viewBox="0 0 38 38" version="1.1">
<g id="surface1">
<path style=" stroke:none;fill-rule:nonzero;fill:rgb(100%,100%,100%);fill-opacity:1;" d="M 19 38 C 29.492188 38 38 29.492188 38 19 C 38 8.507812 29.492188 0 19 0 C 8.507812 0 0 8.507812 0 19 C 0 29.492188 8.507812 38 19 38 Z M 19 38 "/>
<path style=" stroke:none;fill-rule:nonzero;fill:rgb(96.862745%,62.352941%,10.196078%);fill-opacity:1;" d="M 30.382812 19.089844 C 30.382812 22.988281 27.230469 26.148438 23.339844 26.148438 C 19.449219 26.148438 16.296875 22.988281 16.296875 19.089844 C 16.296875 15.195312 19.449219 12.035156 23.339844 12.035156 C 27.230469 12.035156 30.382812 15.195312 30.382812 19.089844 Z M 30.382812 19.089844 "/>
<path style=" stroke:none;fill-rule:nonzero;fill:rgb(91.764706%,0%,10.588235%);fill-opacity:1;" d="M 21.695312 19.089844 C 21.695312 22.988281 18.539062 26.148438 14.652344 26.148438 C 10.761719 26.148438 7.609375 22.988281 7.609375 19.089844 C 7.609375 15.195312 10.761719 12.035156 14.652344 12.035156 C 18.539062 12.035156 21.695312 15.195312 21.695312 19.089844 Z M 21.695312 19.089844 "/>
<path style=" stroke:none;fill-rule:nonzero;fill:rgb(100%,37.254902%,0.392157%);fill-opacity:1;" d="M 18.996094 13.535156 C 17.351562 14.828125 16.296875 16.835938 16.296875 19.089844 C 16.296875 21.347656 17.351562 23.355469 18.996094 24.648438 C 20.640625 23.355469 21.695312 21.347656 21.695312 19.089844 C 21.695312 16.835938 20.640625 14.828125 18.996094 13.535156 Z M 18.996094 13.535156 "/>
</g>
</svg>
