<svg xmlns="http://www.w3.org/2000/svg" width="26" height="26" viewBox="0 0 26 26">
  
      <path d="M21.91,10.7H19.66c-.72,0-1.1.9-1.15,1s-.15.7-.28,1.38l4.17,0a12.72,12.72,0,0,0,.17-1.64C22.58,11,22,10.74,21.91,10.7Z" fill="#3661a5"/>
      <path d="M10.82,10.67H8.69a2,2,0,0,0-1.1,1.07c0,.15-.3,1.6-.59,3.18a1.56,1.56,0,0,0,1.1.88l2-.06a1.63,1.63,0,0,0,1-1l.54-3.3C11.62,11.06,11.05,10.67,10.82,10.67Z" fill="#3661a5"/>
      <path d="M13,.34A12.66,12.66,0,1,0,25.66,13,12.66,12.66,0,0,0,13,.34ZM11.4,14.82a2,2,0,0,1-1.25,1.31H10.1l-2,.06h0a1.84,1.84,0,0,1-1.17-.71l-.56,3.1a.19.19,0,0,1-.19.16h0A.19.19,0,0,1,6,18.51l.62-3.44L7,12.72l.15-.78a3,3,0,0,1,.07-.32h0a2.28,2.28,0,0,1,1.41-1.33h2.24c.19,0,1.2.38,1.08,1.18v0L11.4,14.8Zm5.82-4.2H14.15a1.38,1.38,0,0,0-1.09,1.32h0a.89.89,0,0,0,.7,1h2.18S17,13,17,14.48a1.74,1.74,0,0,1-1.41,1.69H12.09a.2.2,0,0,1,0-.39h3.41a1.35,1.35,0,0,0,1.07-1.31c0-1-.56-1.15-.66-1.17h-2.2a1.26,1.26,0,0,1-1-1.36,1.76,1.76,0,0,1,1.41-1.7h3.13a.2.2,0,1,1,0,.39Zm5.35,2.82-4.41,0a10.3,10.3,0,0,0-.2,1.58c0,.6.77.72.87.74H22a.2.2,0,1,1,0,.39H18.81c-.42,0-1.21-.34-1.23-1.12a25.38,25.38,0,0,1,.56-3.46v0c0-.05.49-1.28,1.52-1.28H22s1,.29,1,1.1a14.26,14.26,0,0,1-.21,1.87A.19.19,0,0,1,22.57,13.44Z" fill="#3661a5"/>
    
    <path d="M3.51,9.46A.54.54,0,1,1,3,8.91.54.54,0,0,1,3.51,9.46ZM2.9,16.32a.54.54,0,1,0,.54.54A.54.54,0,0,0,2.9,16.32Zm-2.07.21.12.39a.43.43,0,0,0,0-.07A.45.45,0,0,0,.83,16.54Zm1.43,2.23a.54.54,0,0,0-.54-.54.54.54,0,0,0-.23.06c.15.33.31.65.49,1A.54.54,0,0,0,2.27,18.77ZM3.49,13,2.3,11.2H.46c0,.11,0,.22,0,.33H2.13l1,1.5H.34c0,.11,0,.22,0,.33H4.29L3.34,15H2.24a.54.54,0,0,0-.51-.38.54.54,0,0,0,0,1.09.54.54,0,0,0,.51-.38H3.47l1.14-1.93H6.4V13ZM2.28,7.61a.54.54,0,0,0-.48-.53c-.16.3-.31.61-.44.92a.55.55,0,0,0,.38.15A.54.54,0,0,0,2.28,7.61ZM1,9.46a.54.54,0,0,0-.11-.31c-.08.26-.16.52-.22.79A.55.55,0,0,0,1,9.46Z" fill="#fcb618"/>
  
</svg>
