<?xml version="1.0" encoding="UTF-8"?>
<svg xmlns="http://www.w3.org/2000/svg" xmlns:xlink="http://www.w3.org/1999/xlink" width="38px" height="24px" viewBox="0 0 38 24" version="1.1">
<g id="surface1">
<path style=" stroke:none;fill-rule:nonzero;fill:rgb(5.490196%,27.058824%,58.431373%);fill-opacity:1;" d="M 14.09375 17.03125 L 15.785156 7.054688 L 18.488281 7.054688 L 16.796875 17.03125 Z M 14.09375 17.03125 "/>
<path style=" stroke:none;fill-rule:nonzero;fill:rgb(5.490196%,27.058824%,58.431373%);fill-opacity:1;" d="M 26.566406 7.269531 C 26.03125 7.070312 25.191406 6.851562 24.140625 6.851562 C 21.46875 6.851562 19.589844 8.203125 19.574219 10.144531 C 19.558594 11.578125 20.917969 12.375 21.941406 12.855469 C 22.992188 13.34375 23.347656 13.65625 23.34375 14.089844 C 23.335938 14.757812 22.503906 15.066406 21.726562 15.066406 C 20.644531 15.066406 20.066406 14.914062 19.179688 14.542969 L 18.832031 14.382812 L 18.453125 16.617188 C 19.085938 16.894531 20.25 17.136719 21.464844 17.148438 C 24.304688 17.148438 26.152344 15.8125 26.171875 13.738281 C 26.183594 12.605469 25.460938 11.742188 23.902344 11.03125 C 22.957031 10.570312 22.378906 10.261719 22.382812 9.792969 C 22.382812 9.378906 22.875 8.933594 23.933594 8.933594 C 24.816406 8.921875 25.457031 9.117188 25.957031 9.316406 L 26.199219 9.433594 L 26.566406 7.269531 "/>
<path style=" stroke:none;fill-rule:nonzero;fill:rgb(5.490196%,27.058824%,58.431373%);fill-opacity:1;" d="M 33.523438 7.054688 L 31.433594 7.054688 C 30.785156 7.054688 30.300781 7.234375 30.015625 7.882812 L 26.003906 17.023438 L 28.839844 17.023438 C 28.839844 17.023438 29.304688 15.796875 29.410156 15.523438 C 29.71875 15.523438 32.476562 15.53125 32.871094 15.53125 C 32.953125 15.878906 33.203125 17.023438 33.203125 17.023438 L 35.710938 17.023438 Z M 30.207031 13.496094 C 30.429688 12.921875 31.285156 10.707031 31.285156 10.707031 C 31.269531 10.734375 31.507812 10.128906 31.644531 9.757812 L 31.824219 10.617188 C 31.824219 10.617188 32.34375 12.996094 32.453125 13.496094 Z M 30.207031 13.496094 "/>
<path style=" stroke:none;fill-rule:nonzero;fill:rgb(5.490196%,27.058824%,58.431373%);fill-opacity:1;" d="M 2.324219 7.054688 L 2.289062 7.261719 C 3.359375 7.523438 4.3125 7.898438 5.148438 8.367188 L 7.546875 17.015625 L 10.40625 17.011719 L 14.664062 7.054688 L 11.800781 7.054688 L 9.152344 13.859375 L 8.871094 12.476562 C 8.859375 12.433594 8.84375 12.390625 8.828125 12.347656 L 7.910156 7.898438 C 7.746094 7.265625 7.269531 7.078125 6.683594 7.054688 Z M 2.324219 7.054688 "/>
</g>
</svg>
