<svg xmlns="http://www.w3.org/2000/svg" xmlns:xlink="http://www.w3.org/1999/xlink" viewBox="0 0 85 50"><defs><style>.cls-1{fill:none;}.cls-2{clip-path:url(#clip-path);}.cls-3{fill:#180087;}.cls-4{fill:#fff;}.cls-5{fill:#ea0020;}</style><clipPath id="clip-path"><rect class="cls-1" x="-0.13" y="-0.31" width="87.33" height="50.95"/></clipPath></defs><g id="AUSTRALIA"><g class="cls-2"><rect class="cls-3" x="-0.13" y="-0.31" width="87.33" height="50.95"/><polygon class="cls-4" points="22.84 30.91 24.18 35.05 28.24 33.51 25.84 37.12 29.57 39.34 25.25 39.71 25.84 44.01 22.84 40.87 19.86 44.01 20.45 39.71 16.13 39.34 19.86 37.12 17.46 33.51 21.52 35.05 22.84 30.91"/><polygon class="cls-4" points="68.79 38.35 69.43 40.32 71.36 39.59 70.22 41.31 72 42.37 69.93 42.54 70.22 44.59 68.79 43.09 67.37 44.59 67.66 42.54 65.6 42.37 67.37 41.31 66.23 39.59 68.17 40.32 68.79 38.35"/><polygon class="cls-4" points="57.31 20.16 57.94 22.13 59.87 21.39 58.73 23.12 60.51 24.18 58.45 24.35 58.73 26.4 57.31 24.9 55.88 26.4 56.17 24.35 54.11 24.18 55.88 23.12 54.74 21.39 56.68 22.13 57.31 20.16"/><polygon class="cls-4" points="68.79 7.71 69.43 9.68 71.36 8.95 70.22 10.67 72 11.73 69.93 11.91 70.22 13.95 68.79 12.46 67.37 13.95 67.66 11.91 65.6 11.73 67.37 10.67 66.23 8.95 68.17 9.68 68.79 7.71"/><polygon class="cls-4" points="79.01 17.1 79.64 19.07 81.58 18.33 80.43 20.06 82.21 21.11 80.15 21.29 80.44 23.34 79.01 21.84 77.59 23.34 77.87 21.29 75.81 21.11 77.59 20.06 76.45 18.33 78.38 19.07 79.01 17.1"/><polygon class="cls-4" points="73.39 26.31 73.89 27.54 75.21 27.64 74.2 28.49 74.51 29.78 73.39 29.08 72.27 29.78 72.58 28.49 71.57 27.64 72.89 27.54 73.39 26.31"/><polygon class="cls-4" points="19.02 -0.31 19.02 7.36 -0.13 7.36 -0.13 15.02 19.02 15.02 19.02 22.67 26.67 22.67 26.67 15.02 45.83 15.02 45.83 7.36 26.67 7.36 26.67 -0.31 19.02 -0.31"/><polygon class="cls-4" points="-0.13 -0.31 -0.13 2.26 40.69 22.67 45.82 22.67 45.82 20.11 5.01 -0.31 -0.13 -0.31"/><polygon class="cls-4" points="40.69 -0.31 -0.13 20.11 -0.13 22.67 5.01 22.67 45.82 2.26 45.82 -0.31 40.69 -0.31"/><polygon class="cls-5" points="20.55 -0.31 20.55 8.88 -0.13 8.88 -0.13 13.48 20.55 13.48 20.55 22.67 25.14 22.67 25.14 13.48 45.82 13.48 45.82 8.88 25.14 8.88 25.14 -0.31 20.55 -0.31"/><path class="cls-5" d="M-.13-.31V1.41l11.88,6h3.44Zm42.52,0L27.08,7.36h3.43L45.82-.31Z"/><path class="cls-5" d="M15.19,15-.13,22.67H3.3L18.61,15Zm15.32,0,15.32,7.66V21l-11.9-6Z"/></g></g></svg>