<svg xmlns="http://www.w3.org/2000/svg" width="85" height="50" viewBox="0 0 85 50">
  <rect x="0.02" width="84.97" height="50" fill="#e42211"/>
  <rect x="21.26" y="0.03" width="42.49" height="49.94" fill="#fff"/>
  <path
    d="M42.51,7.08l-2.9,5.4c-.33.59-.92.54-1.51.21L36,11.6l1.57,8.3c.33,1.52-.73,1.52-1.25.87l-3.66-4.1-.6,2.08a.71.71,0,0,1-.82.49l-4.63-1,1.21,4.42c.27,1,.47,1.39-.26,1.65l-1.65.78,8,6.47a1.06,1.06,0,0,1,.37,1.09L33.55,35c2.74-.32,5.2-.8,8-1.09.24,0,.65.37.65.66l-.37,8.38h1.34l-.21-8.37c0-.28.36-.7.61-.67,2.74.29,5.2.77,7.95,1.09l-.7-2.29a1.07,1.07,0,0,1,.36-1.09l8-6.47-1.65-.78c-.72-.26-.52-.67-.26-1.65l1.22-4.42-4.63,1a.72.72,0,0,1-.83-.49l-.59-2.08-3.66,4.1c-.52.65-1.58.65-1.25-.87L49,11.6l-2.1,1.09c-.58.33-1.17.38-1.5-.21Z"
    fill="#e42211"/>
</svg>
