<svg xmlns="http://www.w3.org/2000/svg" xmlns:xlink="http://www.w3.org/1999/xlink" width="85" height="50" viewBox="0 0 85 50">
  <path d="M41.29,18.55l0-.12,0-.06h.09l0,0s.08.17,0,.26,0-.1-.06-.11-.07,0-.09,0" fill="#d8bfb8"/>
  <rect width="85" height="50" fill="#fedc00"/>
  <ellipse cx="41.49" cy="24.73" rx="4.55" ry="6.29" fill="#d5edf9"/>
  <rect y="25" width="85" height="25" fill="#0751a0"/>
  <path
    d="M46.06,24.81a6.93,6.93,0,0,1-1.14,3.89,4.46,4.46,0,0,1-2.76,1.94A3.83,3.83,0,0,1,39,29.79a5.94,5.94,0,0,1-1.91-3.17,7.41,7.41,0,0,1,.21-4.31,5.48,5.48,0,0,1,2.2-2.83,3.73,3.73,0,0,1,3.21-.33,4.88,4.88,0,0,1,2.53,2.35,7.12,7.12,0,0,1,.79,3.31h0a7,7,0,0,0-1-3.75,4.58,4.58,0,0,0-2.67-2,3.79,3.79,0,0,0-3.17.68,5.77,5.77,0,0,0-2,3,7.52,7.52,0,0,0-.06,4A5.93,5.93,0,0,0,39,29.81a3.84,3.84,0,0,0,3.14.85,4.44,4.44,0,0,0,2.74-1.91,6.88,6.88,0,0,0,1.16-3.69c0-.08,0-.16,0-.24h0"
    fill="#5090c4"/>
  <path d="M44,24.35a2.33,2.33,0,0,1,.63-.2c.17-.05.37-.06.53-.1s.59.26.74.31v.42a3.4,3.4,0,0,1-1,0c-.27-.1-.91-.42-.91-.42" fill="#3a5055"/>
  <path
    d="M39.59,25.36c.08.07,0,.1,0,.15s.16.18.36.24a.27.27,0,0,1,.15.12.84.84,0,0,0,.19.15c.1.07,0,.09.25.1a1.3,1.3,0,0,1,.41.08,2.79,2.79,0,0,0,.37.06c.22,0,1,0,1,0s-.55.12-.6.15-.3,0-.35,0l-.15.11c-.06,0,0,.06,0,.07a.91.91,0,0,1,.21.08.63.63,0,0,0,.31.08,2.23,2.23,0,0,1,.33,0,1.31,1.31,0,0,0,.38,0,1.27,1.27,0,0,0,.35,0h.35c.12,0,.12,0,.25,0s.22.2.09.2.1,0,0,0a1.84,1.84,0,0,0-.37,0s-.1.08-.23.18,0,.15,0,.18a.85.85,0,0,0,.16.06c.06,0,.11,0,.28.08a.85.85,0,0,0,.33.08,1.77,1.77,0,0,1,.27,0,1.44,1.44,0,0,0,.33.1c.11,0,.07,0,.21.09s.13,0,.24,0a.31.31,0,0,1,.21.06.94.94,0,0,0,.15.08,8.22,8.22,0,0,1-.5.89,4.45,4.45,0,0,1-1.68,1.5,3.56,3.56,0,0,1-2.15.23A4,4,0,0,1,38.47,29a3.53,3.53,0,0,1-.56-1H38l.17,0,.16,0a1,1,0,0,0,.2-.06.75.75,0,0,1,.19-.08l.12,0a.72.72,0,0,0,.17,0c.08,0,.17-.07.08-.11s0,0,0,0h.21c.13,0,.08,0,.16,0a.29.29,0,0,0,.14,0c.06,0,0-.08,0-.16s0,0-.08-.06-.06,0-.14-.07-.06,0-.26-.07,0,.06-.26,0-.11,0-.31,0-.27-.2-.08-.18.06,0,.08,0,.06,0,.17,0h.2a.32.32,0,0,0,.14,0,.54.54,0,0,0,.15,0c.06,0,0,0,0-.06s.06,0,.11,0a.59.59,0,0,0,.17,0h.16c.1,0,0,0,.14-.06s0-.07,0-.08,0,0-.09-.06a.42.42,0,0,0-.15-.09c-.06,0-.43,0-.52,0s-.09-.14.09-.15h.16c.09,0,.07,0,.1,0l.21,0c.15,0,.08,0,.18-.07s.2,0,.28-.06,0-.07-.14-.12,0,0-.08,0-.46-.3-.58-.41.09-.06.19-.11a.1.1,0,0,0-.07-.14l-.22-.08c-.12,0-.18-.13-.26-.15a.48.48,0,0,1-.13,0"
    fill="#056d3c"/>
  <path d="M37.45,25a2.86,2.86,0,0,1,.3-.39" fill="#375094"/>
  <path
    d="M39.59,25.36a.13.13,0,0,0,0,.15.46.46,0,0,0,.29.28c.08,0,.19,0,.22.08a.8.8,0,0,0,.19.15c.1.07,0,.09.25.1a1.3,1.3,0,0,1,.41.08,2.79,2.79,0,0,0,.37.06c.22,0,1,0,.95,0s-.66.14-.71.17-.14-.07-.19,0l-.15.11c-.06,0,0,.06,0,.07a.91.91,0,0,1,.21.08.63.63,0,0,0,.31.08,2.23,2.23,0,0,1,.33,0,1.31,1.31,0,0,0,.38,0c.23,0,0,.06.34,0a1.13,1.13,0,0,1,.32,0c.12,0,.15,0,.28,0s.44.09.31.09a2.4,2.4,0,0,0-.35,0c-.09,0-.18,0-.23,0s-.1.08-.23.18,0,.15,0,.18a.85.85,0,0,0,.16.06c.06,0,.11,0,.28.08a.85.85,0,0,0,.33.08,1.77,1.77,0,0,1,.27,0,1.44,1.44,0,0,0,.33.1c.11,0,.07,0,.21.09s.13,0,.24,0a.31.31,0,0,1,.21.06l.12.06s.29-.8.4-1.14a10.45,10.45,0,0,0,.23-1.41c0-.06-.16-.15-.21-.14a2.23,2.23,0,0,1-.34,0h-.93c-.06,0-.1,0-.21,0a1,1,0,0,0-.38-.07h-.4c-.06,0-.71,0-.83,0h-.45l-.37,0a.86.86,0,0,0-.37,0,1,1,0,0,1-.3.07l-.38.06a4,4,0,0,1-.5.05c-.1,0-.42,0-.42,0 M39.45,25.54c.07.09,0,0-.17.12s.6.46.67.54,0,0,.08,0,.22.08.14.12-.19,0-.28.06,0,0-.18.07l-.21,0h-.12c-.09,0,0,0-.19,0l-.25,0,.5,0a.89.89,0,0,1,.22.07.4.4,0,0,1,.15.09s.06.06.09.06.13,0,0,.08,0,.06-.14.06h-.16a.52.52,0,0,1-.17,0s-.11-.06-.11,0,0,.06,0,.06a.54.54,0,0,1-.15,0A.33.33,0,0,1,39,27h-.2c-.11,0-.17,0-.17,0s-.1,0-.08.09h-.12c.2.06.26,0,.5,0a2.38,2.38,0,0,1,.27.1c.19.06.17,0,.25.07s.12,0,.15.07.06,0,.08.06.09.14,0,.15a.27.27,0,0,1-.14,0c-.08,0,0,0-.16,0h-.21s-.08,0,0,0,0,.08-.08.11l-.17,0-.12,0c-.13,0-.1,0-.19.08a.9.9,0,0,1-.2.06l-.16,0-.17,0-.14,0a4.71,4.71,0,0,1-.48-1.18,12.3,12.3,0,0,1-.23-1.77c0-.05.23-.05.31,0s.46.06.64.08l.64.1s.14-.06.22,0l.33.23"
    fill="#70b743"/>
  <path
    d="M36.18,23.66l.66.67.54-3.72-1.18-1.2s0,2.83,0,4.25 M46.84,23.71l-.7.67-.32-.82-.06-.47c0-1.34,0-2.66,0-2.66l-.2.17.74-.76.44-.44s.06,2.88.07,4.3 M34.93,27.48c0,.4.22,3.3,1.7,4.25,0,0,1.6,1.36,4.28-.49a3,3,0,0,1-1.91.28,4.62,4.62,0,0,1-2.89-3.47l0-4.41L35,22.44s0,4.64,0,5 M48,27.48c0,.4-.22,3.3-1.7,4.25,0,0-1.6,1.36-4.28-.49a2.81,2.81,0,0,0,1.84.28,4.69,4.69,0,0,0,3-3.47,40,40,0,0,0,.16-4.6l.55-.57.44-.44s0,4.64,0,5 M50.06,22.72c0-.09-.06-.7-.06-1.15a3.65,3.65,0,0,0-.15-1l-.17.08,0,.06.06.25c.06.28,0,1.23,0,1.55s.1.77.11,1h0a.32.32,0,0,0,.12.25l.08-.12a3.53,3.53,0,0,0-.06-.94 M49.82,20.58a3.14,3.14,0,0,0-.38-.34c-.06,0-.09.07-.12.12s0,.11.16.16.14,0,.34.06 M49.31,20.16a.27.27,0,0,1,.37-.11c.24.12.18.45.16.53v0c-.44-.7-.52-.15-.52-.15a1.08,1.08,0,0,1,0-.3 M47.94,17.35a.27.27,0,0,1,.33-.21c.26,0,.3.37.3.46v0c-.62-.54-.54,0-.54,0a1.07,1.07,0,0,1-.09-.28 M48.54,17.59a3,3,0,0,0-.45-.19c-.05,0-.06.09-.07.15s0,.12.2.1.13,0,.32-.06 M33.15,20.58a3.06,3.06,0,0,1,.36-.34c.05,0,.08.07.11.12s0,.11-.15.16-.14,0-.32.06 M33.66,20.16a.27.27,0,0,0-.37-.11c-.24.12-.18.45-.16.53v0c.44-.7.52-.15.52-.15a1.08,1.08,0,0,0,0-.3 M34.42,17.6a3.09,3.09,0,0,1,.44-.22c.05,0,.06.09.07.14s0,.12-.19.11-.13,0-.32,0 M35,17.35a.27.27,0,0,0-.32-.21c-.27,0-.3.37-.3.46v0c.62-.54.54,0,.54,0a1,1,0,0,0,.09-.28 M48.87,19.95a5.17,5.17,0,0,0-.08-.58,9.06,9.06,0,0,1-.06-1,3.38,3.38,0,0,0-.15-.87l-.17.15,0,0,.06.21c.06.23,0,1,0,1.28s.1.63.11.79h0c.07.1.18,0,.18,0s0,0,0-.12 M33.12,20.62a3.65,3.65,0,0,0-.15,1c0,.44,0,1.06-.06,1.15a3.46,3.46,0,0,0-.06.94l.08.12a.32.32,0,0,0,.12-.25h0c0-.19.07-.63.1-1s0-1.27,0-1.55l.06-.25,0-.06-.17-.08Z M34.4,17.58a2.9,2.9,0,0,0-.16.84c0,.37,0,.87-.06,1a4.79,4.79,0,0,0-.08.58c0,.08,0,.07,0,.12s.12.08.19,0h0c0-.16.07-.53.1-.79s0-1,0-1.28l.06-.21,0,0-.15-.12Z"
    fill="#0751a0"/>
  <path
    d="M37.11,25.21s0-.11.29-.11a2.51,2.51,0,0,1,.51.07c.32,0,.55,0,.66.06a2.92,2.92,0,0,1,.42.07l.22.1s-.06,0,.18,0h.49c.33,0,.11.08.54,0l.86-.15c.11,0-.12-.11.29-.06a2.68,2.68,0,0,0,.67,0h.49a3.32,3.32,0,0,1,.41,0c.08,0,.21,0,.38,0s.22-.06.36,0a.79.79,0,0,0,.48,0,2.64,2.64,0,0,1,.34,0l.44,0,.37,0,.23,0s0-.6,0-.67.15-.18-.11-.2c-1-.09-.59-.15-1.16-.19l-.93-.22a9.26,9.26,0,0,0-1.1-.25l-.9,0-1.49,0-.55-.2c-.11,0-.12,0-.48,0a3.58,3.58,0,0,1-.77,0,2.41,2.41,0,0,0-.75,0,2.76,2.76,0,0,0-.37.11l-.06,1.47Z"
    fill="#567176"/>
  <path
    d="M44.31,24.23a.21.21,0,0,0-.12-.06.62.62,0,0,1-.2-.08l0,0a.67.67,0,0,0-.27-.1l-.19,0c-.25-.06-.29-.11-.32-.16a.25.25,0,0,0-.07-.07.15.15,0,0,0-.16,0l-.11,0c-.06,0-.08,0-.13-.07a1.43,1.43,0,0,0-.26-.24,2,2,0,0,0-.29-.19L42,23.11,41.84,23a3.13,3.13,0,0,1-.3-.23s-.06,0-.08,0l-.07,0a1.17,1.17,0,0,0-.29,0H41a.53.53,0,0,1-.29-.12.37.37,0,0,0-.3-.09.4.4,0,0,1-.21-.07l-.15-.06h0a1,1,0,0,0-.18-.07.82.82,0,0,0-.61.22l-.09.06-.18.11a5.25,5.25,0,0,0-.66.45,3.08,3.08,0,0,1-.88.48,1.56,1.56,0,0,1-.44.08h0v0a1.21,1.21,0,0,1,.43,0h0a.08.08,0,0,0,0,.07s.07,0,.16,0h.15c.14,0,.34,0,.36,0s.22,0,.44,0l.08,0,.19,0h.29a.78.78,0,0,0,0,.16h0a1.06,1.06,0,0,0,.17.1h0l.07,0c.11,0,.14,0,.16.07v0a.08.08,0,0,0,0,.05h.12s0,0,.18-.05l.15,0h0a.25.25,0,0,1,.23-.06l.12,0a.2.2,0,0,0,.11,0,.34.34,0,0,1,.26,0,1.33,1.33,0,0,0,.45.11h.18a.22.22,0,0,0,.09,0,.74.74,0,0,1,.28,0h0l.2,0c.27,0,.3,0,.34,0a.45.45,0,0,1,.16-.07h0l.05,0s0,0,.06,0l.09,0,.17.08a.91.91,0,0,0,.46,0h0c.07,0,.07,0,.1,0l.14,0a1.65,1.65,0,0,0,.37.06l.38,0h.06ZM43,23.68h0Zm-5.53.05v0h0S37.48,23.74,37.48,23.73Zm1.58,0h0Zm.58.45h0Z M49.83,20.6v0 M33.13,20.6v0 M33.67,20.83l-.08.06.08-.06"
    fill="#fff"/>
  <path
    d="M33.12,23.76s.11.07.13,0 M37.21,23.09l.09-.69.22-.76.22-.34.13-.21-.49-.5-.19-.17s0,1.32,0,2.66 M45.75,23.09l-.09-.69-.22-.76-.22-.34-.13-.21.48-.5.2-.17s0,1.32,0,2.66 M33.25,24c0-.06,0-.53,0-.63s0-.16.09-.62a3.6,3.6,0,0,0,0-1,5.45,5.45,0,0,1,.06-.89l-.17-.13-.06.25c-.06.28,0,1.23,0,1.55s-.1.77-.1,1h0a2.43,2.43,0,0,0,.07.5 M36.82,25.47c0-.14,0-.65,0-1.19-.31-.31.06.09-.65-.64l-.19-.2a40.3,40.3,0,0,0,.16,4.61A4.62,4.62,0,0,0,39,31.52a3,3,0,0,0,1.9-.28l.17-.12c-2.35-.34-4-2.57-4.25-5.65 M46.14,25.47c0-.14,0-.65,0-1.19.3-.31-.06.09.65-.64l.19-.2a40.31,40.31,0,0,1-.16,4.61A4.62,4.62,0,0,1,44,31.52a3,3,0,0,1-1.9-.28l-.17-.12c2.35-.34,4-2.57,4.25-5.65 M41.75,33.43c0,.18.13,1.45.21,2.29l.06.64a.8.8,0,0,0,.18.49.72.72,0,0,1,.22.33s0,.05,0,.08v0c0,.15-.24.21-.38.19a2.35,2.35,0,0,1-.66-.31l0-4.46c1.11-.93.35-.21.4.72Z M41,33.43c0,.18-.13,1.45-.21,2.29l-.06.64a.79.79,0,0,1-.18.49.72.72,0,0,0-.22.33v.11c0,.15.24.21.38.19a2.35,2.35,0,0,0,.66-.31l0-4.46c-1.1-.93-.35-.21-.4.72Z M49.72,24c0-.06,0-.53,0-.63s0-.16-.09-.62a3.54,3.54,0,0,1,0-1,5.4,5.4,0,0,0-.07-.91l.18-.11.06.25c.06.28,0,1.23,0,1.55s.1.77.11,1h0a2.43,2.43,0,0,1-.07.5 M49.38,20.48c.09,0,.36.08.44.1h0a.67.67,0,0,0-.54.25l-.13-.16c-.12-.2.1-.22.21-.18 M49.84,20.58v0c0,.09-.23.42-.45.3l-.08-.06a.65.65,0,0,1,.54-.25 M48.28,17.91l.16-.16.06.21c.06.23,0,1,0,1.28s.1.63.1.79h0a1.67,1.67,0,0,1-.07.41s-.11.06-.13,0a4.52,4.52,0,0,1,0-.52,4.79,4.79,0,0,0-.09-.51,2.44,2.44,0,0,1,0-.84,3.5,3.5,0,0,0,0-.68 M34.69,17.91l-.16-.16-.06.21c-.06.23,0,1,0,1.28s-.1.63-.1.79h0a1.67,1.67,0,0,0,.07.41s.11.06.13,0a4.52,4.52,0,0,0,0-.52,5,5,0,0,1,.09-.51,2.45,2.45,0,0,0,0-.84,3.35,3.35,0,0,1,0-.68 M34.86,17.5c-.09,0-.36.08-.44.09h0a.66.66,0,0,1,.54.25l.13-.16c.12-.2-.1-.22-.21-.18 M34.39,17.6v0c0,.08.23.4.45.29l.08-.06a.66.66,0,0,0-.54-.25 M48.11,17.5c.09,0,.36.08.44.09h0a.66.66,0,0,0-.54.25l-.13-.16c-.12-.2.1-.22.21-.18 M48.58,17.6v0c0,.08-.24.4-.45.29L48,17.84a.66.66,0,0,1,.54-.25 M33.59,20.48c-.09,0-.36.08-.44.1h0a.67.67,0,0,1,.54.25l.13-.16c.12-.2-.1-.22-.21-.18 M33.12,20.58v0c0,.08.23.41.45.29l.08-.06a.67.67,0,0,0-.54-.25"
    fill="#e52025"/>
  <path
    d="M33.21,23.8a.22.22,0,0,1-.1,0h0s.07,0,.1,0v0h0l0,0Z M34.94,22.48a.23.23,0,0,0-.1-.05c-.05,0-.1,0-.11-.08h0s.05,0,.1.06a.24.24,0,0,1,.1.06Z M35,22.74a.43.43,0,0,0-.14-.1l-.06,0h0l.06,0a.45.45,0,0,1,.14.11Z M40.64,31.39l.27-.18.13-.09,0,0h.17l-.09,0-.23.11Z M41.47,31.18a3.55,3.55,0,0,1-1-.15l0-.06a3.47,3.47,0,0,0,2,0l0,.06A3.53,3.53,0,0,1,41.47,31.18Z M42.4,30.86v0A4.59,4.59,0,0,0,45,28.71a7.62,7.62,0,0,0,1-3.93,6.56,6.56,0,0,0-2.7-5.64l0,0a6.6,6.6,0,0,1,2.72,5.66,7.65,7.65,0,0,1-1,3.94A4.62,4.62,0,0,1,42.4,30.86Z M34.77,17.65h0l-.17,0-.15,0h0a2.88,2.88,0,0,1,.44-.22h0c.05,0,.06.07.08.12v0a.08.08,0,0,1,0,.08A.21.21,0,0,1,34.77,17.65Zm-.31-.06.13,0,.17,0c.09,0,.15,0,.17,0a.07.07,0,0,0,0-.06v0s0-.11-.06-.11h0A2.5,2.5,0,0,0,34.45,17.59Z M40.75,31.21a.47.47,0,0,0,.15-.3v0a.46.46,0,0,1-.15.3s0,0,0,0 M41,31.37c.11,0,.17-.22.2-.33s0,0,0,0-.09.28-.2.32v0 M41.23,31.66a.68.68,0,0,0,.12-.36s0,0,0,0a.67.67,0,0,1-.12.35s0,0,0,0 M42.16,31.19a.46.46,0,0,1-.15-.3s0,0,0,0a.48.48,0,0,0,.15.3s0,0,0,0 M42,31.34c-.11,0-.17-.22-.19-.32a.1.1,0,0,0,0,0c0,.11.08.28.2.33s0,0,0,0 M41.7,31.64a.67.67,0,0,1-.12-.35s0,0,0,0a.68.68,0,0,0,.12.36s0,0,0,0 M37.84,31.12v0h0l.09,0c-.3-.4-.62-.56-1-.46a1.12,1.12,0,0,0-.59.47h.08a.14.14,0,0,0-.09,0h0a.94.94,0,0,1,.38-.41c.29-.18.74-.27,1.22.38h0l-.1,0Z"
    fill="#030304"/>
  <path d="M36.21,19.4c1.17,1.18-1.44-1.49-1.76-1.82a31.84,31.84,0,0,0-.1,4.22l1.84,1.86c0-1.43,0-4.25,0-4.25" fill="#fedc00"/>
  <path d="M46.34,31.73c1.48-1,1.72-3.85,1.7-4.25s0-5,0-5c-1.17,1.18,1.44-1.49,1.77-1.82.15-.16,0,6.08,0,8.84,0,1.3-.79,5.88-5.44,3.57-7.08-3.25.66-.43,2-1.31" fill="#fedc00"/>
  <path
    d="M47.94,22.53c0-.7-.36-3.46-1-4.35,0,0,.6.86.66,4.68l.31-.33Z M47.84,22.12A12.59,12.59,0,0,0,46.35,18a21.62,21.62,0,0,1,1.41,4.72l.14-.14-.05-.5Z M46,18.14a16.85,16.85,0,0,1,1.45,4.91l.35-.34A16.06,16.06,0,0,0,46,18.14 M45.43,18a23.82,23.82,0,0,1,1.22,2.68,21.84,21.84,0,0,1,.61,2.61l.42-.42A18.62,18.62,0,0,0,45.43,18 M44.82,17.78a16.91,16.91,0,0,1,1.64,3.32c.12.43.49,1.71.63,2.31l.49-.4c-.39-1.16-1.61-4.1-2.76-5.24 M44.83,18.92a13.7,13.7,0,0,1,2.07,4.69l.57-.56a19.54,19.54,0,0,0-2.64-4.14 M45.26,20.17a8.37,8.37,0,0,1,1.42,3.6l.48-.4a16.17,16.17,0,0,0-1.9-3.2"
    fill="#099c4f"/>
  <path
    d="M36.26,20.4a4.82,4.82,0,0,1,0-.55,1.4,1.4,0,0,0,.31-1.23s-.08-.28,0-.35a6,6,0,0,0-.4.92,2.34,2.34,0,0,0,0,.64c0,.08.05.31.05.31 M36.22,19.86c0-.09.11-.21.18-.28 M36.69,19.84a.42.42,0,0,1,.17-.39c.13-.1.29-.14.34-.3a.68.68,0,0,0,0,.19,1.13,1.13,0,0,1-.08.21,1.76,1.76,0,0,1-.18.29 M36.07,20.41a1,1,0,0,1,.48-.52,1.51,1.51,0,0,1,.55-.11,1.18,1.18,0,0,0,.33,0,.61.61,0,0,0,.27-.13c-.32.18-.5.54-.85.69s-.63.06-.87.25 M37.78,19.15c.06-.07,0-.27.07-.36a2.84,2.84,0,0,1,.19-.33c0,.11,0,.27,0,.39a1.92,1.92,0,0,1-.22.37 M35.9,22.94c.13.2.29.53.11.76,0-.06,0-.17-.11-.21s-.13,0-.18,0-.11-.22-.21-.3l0-.06.37-.19,0,0Z M35.3,22.34a3.15,3.15,0,0,0,.13-.3.63.63,0,0,1,.3-.26,1.5,1.5,0,0,1,.44-.09c.15,0,.31.06.44,0a4.31,4.31,0,0,0-.8.25,2.4,2.4,0,0,0-.43.39,1.11,1.11,0,0,0-.18.37 M35.2,22.89a1.26,1.26,0,0,0,.08-.16,1.53,1.53,0,0,1,.14-.2,2.57,2.57,0,0,1,.31-.37.87.87,0,0,1,.38-.21c.13,0,.36,0,.46-.1a3.33,3.33,0,0,1-.19.29,1.9,1.9,0,0,1-.41.36,1.77,1.77,0,0,1-.4.17c-.11,0-.31,0-.38.15h0l.06,0 M37.06,19.77a1.75,1.75,0,0,1,.37-.36,1.24,1.24,0,0,1,.28-.23c.3-.13.63.12.94.11a2.55,2.55,0,0,1-.4.18,1.71,1.71,0,0,1-.43.06c-.26,0-.61,0-.76.27 M37.58,19.47l.17-.14s.11-.06.12-.12 M35.86,21.37c.13,0,.17-.25.2-.34a1.79,1.79,0,0,1,.17-.43,1,1,0,0,1,.23-.19.49.49,0,0,1,.25-.11,3.25,3.25,0,0,1,.46,0,.93.93,0,0,0,.42,0,.82.82,0,0,0-.37.28,1.61,1.61,0,0,1-.42.47,2.42,2.42,0,0,1-.6.23c-.11,0-.31.08-.33.21 M35.68,21.71c.1,0,.14-.13.17-.18a.89.89,0,0,1,.15-.23.78.78,0,0,1,.18-.09.43.43,0,0,1,.2,0h.35a1,1,0,0,0,.32,0,.66.66,0,0,0-.29.14,1.11,1.11,0,0,1-.34.24,2.25,2.25,0,0,1-.47.09c-.09,0-.24,0-.27.1 M35.07,23.08a2,2,0,0,1-.37-2,1.8,1.8,0,0,0,0,.34,2.43,2.43,0,0,1,.41,1.32c-.06.59,0,.35,0,.35l0-.05Z M34.95,22.48c0-.05-.2-.06-.2-.12 M35,22.73a.68.68,0,0,0-.2-.14 M36.43,19.54a4.9,4.9,0,0,1,.23-.49,1.32,1.32,0,0,0,.82-.94s0-.29.12-.33a5.57,5.57,0,0,0-.76.63,2.18,2.18,0,0,0-.24.59c0,.08-.09.3-.09.3 M36.63,19c0-.08.19-.14.28-.16 M35.4,19.83a2.19,2.19,0,0,0,0-.31.65.65,0,0,1-.2-.69s.07-.16,0-.2a2.78,2.78,0,0,1,.27.52,1,1,0,0,1,0,.36s0,.18,0,.18 M35.39,19.19s.11-.08.08-.13 M35.33,19c0-.06,0-.1,0-.16 M35.37,21.07s0-.57.05-.63a1.78,1.78,0,0,0,.43-1.38,1.13,1.13,0,0,1,0-.41,7.35,7.35,0,0,0-.47,1,3.29,3.29,0,0,0,0,.75c0,.1,0,.36,0,.36 M35.69,19.38c0-.12,0-.21,0-.33 M35.34,20.46a3.43,3.43,0,0,1-.21-.42,1,1,0,0,0-.17-.32,1.66,1.66,0,0,1,.38.27 M35.37,21.36s0-.59.31-.75a2,2,0,0,0,.36-.23l.06-.08a4.27,4.27,0,0,0-.17.94,1.6,1.6,0,0,1-.28.56,2.54,2.54,0,0,0-.3.44,1.44,1.44,0,0,0-.07.29 M36.41,19.66c.22-.11.28-.37.49-.5a1.34,1.34,0,0,1,.45-.13c.11,0,.25,0,.32-.15a3.18,3.18,0,0,1-.32.32.85.85,0,0,1-.37.25c-.12,0-.24,0-.36.06a1,1,0,0,0-.24.18l0,0Z M37.84,19.1c.16-.15.16-.41.38-.51a1.59,1.59,0,0,0,.35-.17,1.66,1.66,0,0,1-.73.68 M37.8,19.11c.11,0,.2-.14.3-.19s.22,0,.35,0a1.53,1.53,0,0,0,.36-.08c-.23.32-.71.08-1,.29 M35.15,23.14a.89.89,0,0,1,.12-.25,1.08,1.08,0,0,1,.29-.21c.27-.13.63-.08.85-.29a1.36,1.36,0,0,1-.69.64,1.24,1.24,0,0,1-.33.12,2.12,2.12,0,0,0-.29,0 M35.43,23s0-.09.07-.13l.09-.11 M35.18,22.91s0-.65,0-.72a2,2,0,0,1-.3-1.62A1.29,1.29,0,0,0,35,20.1a8.47,8.47,0,0,1,.4,1.22,3.6,3.6,0,0,1-.07.85c0,.11-.07.41-.07.41 M35.16,21.37c0-.1.16-.18.12-.3"
    fill="#3dac46"/>
  <path d="M36.27,23.75l-.87-.87.74.76.12.11Z" fill="#455ca7"/>
  <path d="M36.63,31.73c-1.48-1-1.72-3.85-1.7-4.25s0-5,0-5c1.17,1.18-1.44-1.49-1.76-1.82-.15-.16,0,6.08,0,8.84,0,1.3.79,5.88,5.44,3.57,7.08-3.25-.66-.43-2-1.31" fill="#fedc00"/>
  <path
    d="M43.34,32.92a11.28,11.28,0,0,1,1.22,2c0,.34,0,.62-.76.5,0,0-.38-.07-.7-.1s-.38,0-.39.11l0-.12-.18-.76c-.14-.55-.25-1.12-.44-1.66 M39.42,32.92a11.39,11.39,0,0,0-1.22,2c0,.34,0,.62.76.5,0,0,.38-.07.7-.1s.38,0,.39.11l0-.12.18-.76c.14-.55.25-1.12.44-1.66"
    fill="#fedc00"/>
  <path d="M40.93,31.24l.23-.11h-.06l-.17.12" fill="#ec6422"/>
  <path
    d="M42.06,32.53a17.07,17.07,0,0,0,.45,2l.18.76a3.05,3.05,0,0,0,.17.31c.14.21.5.59.51.82s-.07.15-.28.14a3.49,3.49,0,0,1-.7-.12c-.2,0-.3-.07-.35.06v-.11c-.13-1.23-.24-2.45-.32-3.68l.35-.15Z M42.06,36.59l0-.12c.06-.13.16-.11.36-.06,0,.27,0,.57,0,.77a.73.73,0,0,0-.22-.33.54.54,0,0,1-.14-.26 M42.07,36.59l0-.12c.06-.13.15-.11.35-.06,0,.27,0,.57,0,.77a.71.71,0,0,0-.22-.33.55.55,0,0,1-.14-.26 M40.71,36.59l0-.12c-.06-.13-.16-.11-.36-.06,0,.27,0,.57,0,.77a.74.74,0,0,1,.22-.33.54.54,0,0,0,.14-.26 M40.71,32.53a16.69,16.69,0,0,1-.45,2l-.18.76a3,3,0,0,1-.17.31c-.14.21-.5.59-.51.82s.07.15.28.14a3.49,3.49,0,0,0,.7-.12c.2,0,.3-.07.35.06v-.11c.13-1.23.24-2.45.32-3.68l-.35-.15Z"
    fill="#1e4383"/>
  <path d="M42.72,35.23s0-.08.44,0c.1.45.21,1.12.21,1.12,0-.23-.47-.69-.6-.91s-.09-.2-.06-.25 M40.06,35.23s0-.08-.44,0c-.1.45-.21,1.12-.21,1.12,0-.23.47-.69.6-.91s.08-.2.05-.25" fill="#e9c81d"/>
  <path
    d="M48.88,20a.13.13,0,0,0-.13-.12.13.13,0,1,0,.13.12 M48.6,20.73l.39,0c0-.25,0-.59-.23-.58s-.17.36-.16.61 M50.16,23.71a.13.13,0,0,0-.13-.12.13.13,0,1,0,.13.12 M50.27,24.43c0-.25,0-.59-.23-.58s-.18.36-.16.61 M49.87,24.45l.39,0 M49.9,24.06a.12.12,0,1,0-.12.13.13.13,0,0,0,.12-.13 M49.58,24.79H50c0-.25,0-.6-.19-.6s-.2.35-.2.6"
    fill="#e6b823"/>
  <circle cx="34.21" cy="19.99" r="0.13" transform="translate(12.04 52.83) rotate(-86.27)" fill="#e6b823"/>
  <path
    d="M34.37,20.73l-.39,0c0-.25,0-.59.23-.58s.18.36.16.61 M32.8,23.72a.12.12,0,1,1,.12.13.13.13,0,0,1-.12-.13 M32.7,24.43c0-.25,0-.59.23-.58s.17.36.16.61 M33.09,24.46l-.39,0 M33.35,24.53H33c0-.25,0-.6.2-.6s.2.35.2.6 M33,23.9a.13.13,0,1,1,.13.13A.13.13,0,0,1,33,23.9 M34.63,21.08h-.39c0-.25,0-.6.2-.6s.19.35.19.6 M48.66,20.35a.12.12,0,1,0-.13.13.13.13,0,0,0,.13-.13 M48.33,21.08h.39c0-.25,0-.6-.2-.6s-.2.35-.2.6"
    fill="#e6b823"/>
  <circle cx="34.43" cy="20.35" r="0.12" fill="#e6b823"/>
  <path
    d="M34,32.06l-1.23,1.17h0v.11l0,0h0a1,1,0,0,1-.34.1,1.91,1.91,0,0,1-.35.67,2.29,2.29,0,0,1,.68-.3c0-.14,0-.31.12-.37h0l0,0,0,0h.08l1.21-1.16h0Zm-1,1.4h-.07l-.13-.12.13.12h.07Z M37.06,33.21,34.8,35.39h0v.11h0a.94.94,0,0,1-.34.1h0a1.93,1.93,0,0,1-.35.67l-.16.14.18-.12a2.3,2.3,0,0,1,.67-.3h0c0-.19,0-.31.12-.36H35l2.25-2.18Z M50.94,34.12a1.89,1.89,0,0,1-.35-.67h0a1,1,0,0,1-.34-.1h0v-.11L49,32.05l-.21.25L50,33.47h.1c.07,0,.11.17.11.36h0a2.29,2.29,0,0,1,.67.3l.2.14Z M48.87,36.29a1.94,1.94,0,0,1-.35-.67h0a.94.94,0,0,1-.33-.1h0V35.4l-2.26-2.19-.21.25L48,35.63h.11c.09.05.11.22.11.36h0a2.3,2.3,0,0,1,.67.3l.18.12Z M34.33 17.55 34.84 18.04 34.71 18.1 34.21 17.61 34.33 17.55 34.33 17.55 M48.66 17.52 48.14 18.02 48.29 18.09 48.8 17.59 48.66 17.52 M43.44,19a4.16,4.16,0,0,0-2-.53,4.92,4.92,0,0,0-1.8.49,5.69,5.69,0,0,0-2.25,2.85,8.1,8.1,0,0,0-.55,3c0,3.08,1.71,5.54,3.85,6.13a2,2,0,0,0,.75.14,6.65,6.65,0,0,0,.83-.06c2.18-.54,3.9-3.06,3.9-6.18A7.79,7.79,0,0,0,43.44,19m-1.19,11.6a5.49,5.49,0,0,1-.83.08,3.4,3.4,0,0,1-.77-.1c-1.93-.54-3.46-2.87-3.46-5.69a7.87,7.87,0,0,1,.53-2.78,5.16,5.16,0,0,1,2.06-2.57A3.87,3.87,0,0,1,41.42,19a3.21,3.21,0,0,1,1.82.59,6.24,6.24,0,0,1,2.46,5.29c0,2.86-1.49,5.23-3.45,5.73 M50.32,20.29h0c-.09-.09-.21-.12-.26-.07a.12.12,0,0,0,0,.1.36.36,0,0,0-.18.1.29.29,0,0,0-.05.39.19.19,0,0,0,.14.06h0a.34.34,0,0,0,.23-.11.37.37,0,0,0,.1-.18.11.11,0,0,0,.1,0C50.44,20.5,50.41,20.38,50.32,20.29Zm-.18-.08h0Zm-.19.64-.05,0,.06,0h0Z M49.66,16.42a2.22,2.22,0,0,1-.79.46h0a1.32,1.32,0,0,1-.11.43h0a.64.64,0,0,0,.14.14h0v0l0,0a.28.28,0,0,1,.1-.07.93.93,0,0,1,.3-.06h0a3.15,3.15,0,0,1,.34-.87l.1-.16Z M49.64,17.56a.73.73,0,0,1-.74-.09h0a.68.68,0,0,1-.13-.14.71.71,0,0,1-.08-.15.9.9,0,0,1-.06-.51v0h0l0,0a.78.78,0,0,0-.08.71.57.57,0,0,0,.35.31h.09l.14,0a1,1,0,0,0,.48-.14l.07,0h0l.07,0Zm-1,0,0,0Zm.23.15,0,0,.06,0Z M50.62,20.9v0Z M51.34,19.93h0a4.78,4.78,0,0,1,.59-1.3l.1-.15-.12.14a3.41,3.41,0,0,1-1.24.65h0a2,2,0,0,1-.18.62l-.06,0,0,0c-.09-.08-.36-.3-.46-.24a.07.07,0,0,0,0,0c0,.11.17.33.26.43v0h0a.29.29,0,0,0,.05.09l.08.08.13.14,0,0h0l.06,0a.64.64,0,0,1,.11.17h0a.33.33,0,0,1,0,.15.36.36,0,0,1,0,.12l0-.06a.38.38,0,0,1,0,.11l0,0a.43.43,0,0,1-.14.16l0,0h0a.61.61,0,0,0,.25.05.67.67,0,0,0,.65-.69.69.69,0,0,0,0-.21h0s-.16.19-.33.16a.59.59,0,0,1-.29-.17.13.13,0,0,0,0-.07.11.11,0,0,0,0-.05.93.93,0,0,1,.64-.18Zm-1.41-.27a.07.07,0,0,0,0,0h0Z M46.41,32.09H37.56v-.14h-.19a1.24,1.24,0,0,1,.24-.64.59.59,0,0,1,.35-.22h0c-.47-.65-.92-.56-1.22-.38a.94.94,0,0,0-.38.41h0c.06,0,.35.08.58.48a1,1,0,0,1,.11.37h-.19v.23h0l-.1,0a1.13,1.13,0,0,1-.28-.21h0a3.53,3.53,0,0,1-.92.36h-.09l-.16,0h.25a3.2,3.2,0,0,1,.93.34h0a1.38,1.38,0,0,1,.39-.22v.22h.18c0,.23.08.39.16.39s.14-.16.16-.39h.18v-.14h8.85s.06,0,.06-.22S46.42,32.09,46.41,32.09Zm-8.93-.59,0,0Zm.23-.31,0,0Zm0-.33,0-.05Zm-.5-.27h0Zm.27.09-.08,0Z"
    fill="#b0b9be"/>
  <path
    d="M42.05,17.38s0,.41,0,.48a.51.51,0,0,1,0,.24.17.17,0,0,1-.15.1c-.07,0-.24,0-.27.06l-.06.1s.11-.06.12,0a.13.13,0,0,1,0,.12.3.3,0,0,0,.19,0,.34.34,0,0,1,.18-.06.11.11,0,0,1,.08,0,1,1,0,0,1,0,.22c0,.08,0,.24.07.24s0-.08.07-.09.13.08.11.11a.84.84,0,0,0,0-.27,1.46,1.46,0,0,1,0-.21,1.66,1.66,0,0,1,.31.13s.09.1.12.09,0-.09,0-.11a.06.06,0,0,1,.07,0,.59.59,0,0,0-.21-.25c-.12-.06-.21-.06-.26-.12a.3.3,0,0,1-.07-.18c0-.06,0-.61,0-.61l-.21,0Z
    M40.64,18.41s-.21.16-.23.24a.89.89,0,0,0,0,.15s.18,0,.16.08.06,0,.16-.19.18-.32.25-.31a.4.4,0,0,1,.2.12.17.17,0,0,0,.18.06s-.08-.12,0-.15a.28.28,0,0,1,.13,0,.3.3,0,0,0-.2-.17c-.13,0-.23-.06-.2-.12s.2-.51.2-.51L41,17.25l-.09.29s0,.17,0,.22a2.46,2.46,0,0,1-.21.44s-.52.21-.57.23-.18.16-.18.16v.11s.08-.07.11,0,.06-.07.11,0,0,0,0,0a.54.54,0,0,0,.11-.09l0,0,.15,0"
    fill="#bc8659"/>
  <path
    d="M34.4,16.71l0,0h0v0a.89.89,0,0,1-.06.51.91.91,0,0,1-.08.15.71.71,0,0,1-.14.14.75.75,0,0,1-.75.09l-.07,0,.07,0h0l.07,0a1,1,0,0,0,.49.14l.14,0h.09a.58.58,0,0,0,.36-.32A.79.79,0,0,0,34.4,16.71Zm-.28,1h0l.06,0Zm.2-.12,0,0Z M33.14,20.42h0a.36.36,0,0,0-.18-.1.12.12,0,0,0,0-.1.1.1,0,0,0-.07,0h0l0,0-.08,0s-.05,0-.08,0-.12.21-.07.27a.11.11,0,0,0,.1,0,.38.38,0,0,0,.1.18.34.34,0,0,0,.23.11h0a.19.19,0,0,0,.14-.06A.29.29,0,0,0,33.14,20.42Zm-.09.43h0l.06,0Z M34.22,17.33h0a1.31,1.31,0,0,1-.11-.43h0a2.24,2.24,0,0,1-.79-.46l-.11-.15.1.16a3.11,3.11,0,0,1,.34.87h0a.93.93,0,0,1,.3.06.28.28,0,0,1,.1.07l0,0v0h0a.69.69,0,0,0,.14-.14h0Z M32.39,20.87v0Z M33.12,19.67a.07.07,0,0,0,0-.05c-.1-.06-.37.16-.46.24l0,0h0l-.06,0a2,2,0,0,1-.18-.62h0a3.41,3.41,0,0,1-1.24-.65L31,18.45l.1.15a4.78,4.78,0,0,1,.59,1.31h0a.93.93,0,0,1,.64.18.11.11,0,0,0,0,.05.13.13,0,0,0,0,.08.58.58,0,0,1-.29.16c-.17,0-.33-.16-.33-.16h0a.72.72,0,0,0,0,.21.67.67,0,0,0,.65.69.61.61,0,0,0,.25-.05h0l0,0h0a.43.43,0,0,1-.14-.16l0,0a.38.38,0,0,1,0-.11l0,.06a.36.36,0,0,1,0-.12.33.33,0,0,1,0-.15h0a.65.65,0,0,1,.11-.17l.06,0h0l0,0,.13-.14.08-.08a.29.29,0,0,0,.05-.09h0v0C32.94,20,33.13,19.78,33.12,19.67Zm0,0a.07.07,0,0,0,0,0v0Z"
    fill="#bfc9cf"/>
  <path
    d="M50.75,14.65a5.93,5.93,0,0,0-.83-.48c-.29-.11-1.71-.75-1.93-.86a9.9,9.9,0,0,0-1.41-.41c-.25,0-1.52-.16-2.47-.25a1.09,1.09,0,0,0-.32,0c-.62.1-.54.8-.54.83l-.24.2a.79.79,0,0,1-.24.11A3.15,3.15,0,0,0,42,14a.54.54,0,0,0-.15-.08,4.1,4.1,0,0,0-1-.07.82.82,0,0,0-.65.3h-.12a2,2,0,0,0-.62-.35c-.22,0,0,0,0,0s0-.52-.09-.56,0-.56-.37-.59-1.09,0-1.23,0a2.12,2.12,0,0,0-1.39,0,18.6,18.6,0,0,0-2.22.84c-.88.4-1.58.84-1.62.85s-.35.29-.39.31l0,0h.05l.43-.06s.11.07.27.08h0l.3,0a.36.36,0,0,0-.1.11,0,0,0,0,0,0,0l.11,0a4.9,4.9,0,0,0,.92-.15c-.07.05-.13.1-.12.15s.13.09.36.1c0,0,.28-.06.68-.17-.09.09-.18.18-.17.22s0,0,0,0a.61.61,0,0,0,.24,0,1.33,1.33,0,0,0,.32,0,2.92,2.92,0,0,0,.38-.13c-.1.1-.19.19-.18.25h.06A2.62,2.62,0,0,0,36.4,15l-.21.29a.15.15,0,0,0,.1.1l.11,0a1.57,1.57,0,0,0,.72-.3c-.12.16-.24.34-.21.39s.05,0,.09,0h.07a1.3,1.3,0,0,0,.52-.14c-.12.18-.23.37-.17.42a.29.29,0,0,0,.17,0h.11a1.07,1.07,0,0,0,.36-.13c-.09.15-.19.35-.15.39a.39.39,0,0,0,.25.08h.05a.65.65,0,0,0,.23-.08.63.63,0,0,0,0,.33l0,0h.08a.62.62,0,0,0,.39-.22.85.85,0,0,0,0,.35s0,0,0,0a.44.44,0,0,0,.26-.15,1.11,1.11,0,0,0,.17-.24c0,.15,0,.48,0,.53a.17.17,0,0,0,.09,0h.05l0,0h0a.66.66,0,0,0,.22-.24,1.75,1.75,0,0,0,0,.42.1.1,0,0,0,.08,0H40a2.35,2.35,0,0,0-.35.64c-.2.29-.4.61-.37.7l0,0a1.53,1.53,0,0,0-.27.56c-.15.29-.28.59-.24.67l0,0h0c.05,0,.14-.1.24-.26l0,0h0c.06,0,.16-.1.28-.25h0c.13,0,.75-.64,1.1-1-.08.22-.12.4-.07.43a3.69,3.69,0,0,0,.62-1l0,.13h.09l0,.17s.26-.21.27-.29,0-.14,0-.14l.08-.08.13-.2a2,2,0,0,1,.36.34l.07.17.08-.08.07.18,0-.09,0,.12h0l0,.08s.07,0,.17-.13a1,1,0,0,0,.14-.45s.06.07.06.07a.79.79,0,0,0,.1-.36c0-.14.07-.09.07-.09s0-.09,0-.18a.46.46,0,0,0,.23.21h.05a.16.16,0,0,0,.09,0c.05,0,.05-.25.05-.41a.66.66,0,0,0,.42.3h0c.08,0,.08-.23.06-.4a.6.6,0,0,0,.4.24h.07l0,0a.63.63,0,0,0,0-.33.65.65,0,0,0,.23.09h.07a.38.38,0,0,0,.23-.07s0-.24-.13-.39a1.07,1.07,0,0,0,.36.15h.12a.26.26,0,0,0,.14,0,0,0,0,0,0,0,0,1,1,0,0,0-.19-.4,1.28,1.28,0,0,0,.55.17h.05s.07,0,.08,0-.09-.24-.2-.4a1.52,1.52,0,0,0,.72.33h.09a.15.15,0,0,0,.1-.09h0l-.19-.27a2.66,2.66,0,0,0,.66.14H47a0,0,0,0,0,0,0s0-.08-.11-.14l.31.09.28,0a.64.64,0,0,0,.28-.06h0l0,0s-.09-.13-.19-.21l.59.18h.09c.17,0,.26,0,.27-.08s-.05-.11-.14-.17a3.66,3.66,0,0,0,.8.18h.06a0,0,0,0,0,0,0,1.18,1.18,0,0,0-.37-.34,4.48,4.48,0,0,0,.79.27L50,15C50,15,50,15,50,15s0-.07,0-.08l-.39-.22a3.44,3.44,0,0,0,.41.12l.19,0c.05,0,.07,0,.07,0s0-.07,0-.08l-.46-.26a5.71,5.71,0,0,0,.93.26h0l0,0-.15-.1.22.11h0S50.94,14.77,50.75,14.65Zm-17.66.13h0Zm1.79.17h0v0S34.88,14.94,34.88,14.95Zm2.11.53h0Zm1.39.91s0,0,0,0a.09.09,0,0,0,0,0Zm1.32-.44h0Zm-.91,3.57h0Zm.28-.23h0Zm5.22-2.82s0,0,0,0h0A.09.09,0,0,0,44.29,16.46Zm1.43-.83h0Zm2.13-.47h0s0,0,0,0ZM49.33,15h0Z"
    fill="#452c25"/>
  <rect y="37.5" width="85" height="12.5" fill="#e52025"/>
  <path
    d="M42.73,18.49h0l-.09.13h0c0,.06.12.17.11.2v0l0,0S42.91,18.69,42.73,18.49Z M41.58,18.29h0c-.11,0-.06.27-.06.29h0s0-.06,0-.08a.07.07,0,0,1,.06,0h0l.08,0v-.08l0-.08Z M42.11,18.85h0v0a.4.4,0,0,0,0,.12.22.22,0,0,1,0,.06v0h0a1.61,1.61,0,0,0,.05-.26h0l-.1-.05Z M41.43,18.38l0,0h-.1l-.05.07,0,.14h0s.05,0,.08,0a.24.24,0,0,1,.05.1v0c.07-.09,0-.26,0-.27Z M40.41,18.75s-.13.23,0,.34h0v0s0-.2.12-.24h0l-.2-.1Zm.1.14h0Z M40,18.66h0a.18.18,0,0,0,.07.18h0s0,0,0,0,0-.11.06-.17h0Z M39.35,15.21a.58.58,0,0,0-.16-.12c-.43.13-.27.39-.27.39s.09-.11.11-.11a.11.11,0,0,0-.06.07.41.41,0,0,0,.29,0c.09-.07.13,0,.15,0A.22.22,0,0,0,39.35,15.21Z"
    fill="#d8bfb8"/>
  <path
    d="M40.32,14.85s0-.27,0-.31,0-.25.37-.22a.22.22,0,0,1,.3-.09s.17-.08.28,0a1,1,0,0,1,.23.15.32.32,0,0,1,.21,0c.07.05,0,.23,0,.23s.16.13.18.24,0,.16,0,.19a.17.17,0,0,1,.06.14.44.44,0,0,1-.1.21s0,.22-.06.3a.38.38,0,0,1-.17.1s-.11.13-.19.14-.18-.12-.19-.16-.11-.08-.11-.08-.24.25-.4.21a.43.43,0,0,1-.25-.2s-.06-.21-.06-.21-.18-.11-.16-.2a.69.69,0,0,1,.09-.22l-.07-.22Z"
    fill="#dbdcdd"/>
  <path
    d="M41.06,14.61l-.47.08a2.62,2.62,0,0,1-.39,0,1.88,1.88,0,0,1-.28-.08c-.08,0-.35,0-.44.06s-.16.13-.19.17-.15.14-.16.19,0,.12.09.12a.35.35,0,0,1,.19.16s.17.09.33.09.43-.15.86-.1a1.15,1.15,0,0,0,.74-.27.31.31,0,0,0,0-.36c-.08-.13-.3-.11-.32-.12"
    fill="#dba05f"/>
  <path d="M39.84,14.67a.19.19,0,0,0-.12-.16.7.7,0,0,0-.29,0l-.11,0-.12,0,0,0c0,.06-.08.08-.06.13s0,.06,0,.07,0,0,0,0-.2.06-.15.18.1.08.11.07l.11-.05.16-.15.21-.08h.11l.15-.08Z" fill="#c5262c"/>
  <path
    d="M44.76,32.27c0-.08,0-.17,0-.25h0c0-.08,0-.15,0-.23s0-.2,0-.29-.09-.29-.21-.29H38.43c-.12,0-.19.19-.21.29s0,.19,0,.29,0,.15,0,.23h0c0,.08,0,.17,0,.25s0,.14,0,.21h0c0,.09,0,.18,0,.26s0,.18,0,.27h0c0,.1.09.3.22.3h6.06c.12,0,.21-.2.23-.31h0c0-.09,0-.18,0-.27s0-.17,0-.26h0C44.76,32.42,44.76,32.35,44.76,32.27Zm-.08.8v0h0Z"
    fill="#a05826"/>
  <path
    d="M43.44,19h0a3.8,3.8,0,0,0-2-.62h0a4.48,4.48,0,0,0-1.8.57L39.5,19h0c.1.13.34.48.3.59v0l0,0a4.3,4.3,0,0,1,1.28-.47h.07l.22,0a3.29,3.29,0,0,1,1.73.51h0l.29-.63Z M42.58,31a.55.55,0,0,1-.23-.38.63.63,0,0,1,0-.15h-.14a3.38,3.38,0,0,1-.8.09,2.82,2.82,0,0,1-.67-.1h-.14a.6.6,0,0,1-.23.53h0l.11.08h0l0,0h0a.17.17,0,0,0,0,.09v0s0,0,0,0a.3.3,0,0,0,.21.07s0,0,0,.06a.18.18,0,0,0,0,.06s0,0,0,0a.16.16,0,0,0,.13,0,.21.21,0,0,0,.11.19l.06,0h0l.07.06h0a1,1,0,0,1,.07.15c0,.11.09.22.17.22h0c.07,0,.12-.11.16-.22a.91.91,0,0,1,.08-.15l.07-.06h0l.05,0a.21.21,0,0,0,.11-.19.16.16,0,0,0,.13,0s0,0,0,0a.18.18,0,0,0,0-.06s0,0,0-.06a.31.31,0,0,0,.18-.07.16.16,0,0,0,.05-.09s0,0,0,0h0l0,0h0l.11-.08Z"
    fill="#c38f2d"/>
</svg>
