<svg xmlns="http://www.w3.org/2000/svg" width="85" height="50" viewBox="0 0 85 50">
  <rect width="85" height="50" fill="#32428b"/>
  <path d="M42.38,7.27l.53,1.58h1.69l-1.36,1,.5,1.58-1.37-1-1.33,1,.5-1.58-1.36-1h1.69Zm-7.8,2.09.5,1.58h1.69l-1.36,1,.52,1.58-1.36-1-1.36,1,.5-1.58-1.34-1h1.67Zm-5.75,5.72.52,1.58h1.69l-1.36,1,.52,1.58-1.36-1-1.36,1,.5-1.58-1.36-1h1.69Zm21.39-5.7L50.75,11h1.66l-1.36,1,.53,1.58-1.36-1-1.36,1L49.39,12,48,11h1.66Zm7.69,7.17-1.36,1,.5,1.58-1.34-1-1.36,1,.5-1.58-1.36-1H55.2L55.7,15l.52,1.58Zm2.14,7.86-1.36,1L59.22,27l-1.35-1-1.36,1L57,25.39l-1.36-1h1.66l.53-1.59.52,1.59ZM57.19,34.52l-1.36-1-1.36,1L55,32.94l-1.36-1h1.66l.52-1.58.53,1.58H58l-1.36,1Zm-16,7.86.5-1.58-1.36-1H42l.49-1.58.53,1.58h1.66l-1.33,1,.49,1.58-1.36-1Zm-7.83-2.06.49-1.6-1.36-1h1.69l.5-1.61.53,1.61,1.66,0-1.36,1,.52,1.58-1.36-1Zm18.12-.05-1.36-1-1.36,1,.52-1.61-1.36-1h1.69l.5-1.59.52,1.59H52.3l-1.36,1ZM24.74,24.44h1.67l.52-1.61.53,1.61,1.66,0-1.36,1L28.3,27l-1.36-1-1.36,1,.53-1.61ZM27.6,34.52l.53-1.6-1.36-1h1.66L29,30.33l.53,1.61h1.66l-1.36,1,.52,1.6-1.36-1Z" fill="#f1cb2e"/>
</svg>
