<svg xmlns="http://www.w3.org/2000/svg" width="85" height="50" viewBox="0 0 85 50">
  <rect x="0.07" y="0.05" width="85" height="49.88" fill="#fff"/>
  <rect width="36.43" height="19.64" fill="#002f63"/>
  <rect y="30.36" width="36.43" height="19.64" fill="#ce1427"/>
  <rect x="48.57" y="30.36" width="36.43" height="19.64" fill="#002f63"/>
  <rect x="48.57" width="36.43" height="19.64" fill="#ce1427"/>
  <path d="M39.13,23.23a.22.22,0,0,0,0,.14v-.14s0,0-.06,0Z" fill="#07873f"/>
  <path d="M42.82,24.77h1.49V26a.76.76,0,0,1-.8.7h-.69v-1.9Z" fill="#002f63"/>
  <path d="M42,24.77H40.53V26a.76.76,0,0,0,.8.7H42v-1.9Z M42.82,23.93V22h2l-.52.5h0v1.44Z M42.07,25.06l0-.84L41.81,24v1.15A.19.19,0,0,0,42.07,25.06Z M42.77,25.06v-.84L43,24v1.15A.18.18,0,0,1,42.77,25.06Z" fill="#ce1427"/>
  <path d="M42,23.93V22H40l.51.5h0v1.44Z" fill="#002f63"/>
  <path d="M42.34,22.43v.22h-.23v.19h.23v.8h.18v-.8h.23v-.19h-.23v-.22Z" fill="#eac105" stroke="#030304" stroke-width="0.07"/>
  <path d="M40.91,22.93l0,2.55h0a.65.65,0,0,0,.61.69.64.64,0,0,0,.61-.68h0l0-1.3Z" fill="#fff" stroke="#030304" stroke-width="0.16"/>
  <path d="M41.56 23.71 40.98 23.08 40.98 23.08 40.99 24.41 41.55 24.99 41.56 23.71" fill="#002f63"/>
  <path d="M42.07,25.18h0a.33.33,0,0,1-.29.22s.06.25.29.08v-.05h0Z M43.27 23.71 43.86 23.08 43.86 23.08 43.84 24.41 43.28 24.99 43.27 23.71 M42.76,25.18h0a.33.33,0,0,0,.29.22s-.06.25-.29.08v-.05h0Z" fill="#002f63"/>
  <path d="M41.55,25.35A3.86,3.86,0,0,1,41,24.8v.65h0a.59.59,0,0,0,.53.63.54.54,0,0,0,.51-.46C41.93,25.72,41.62,25.91,41.55,25.35Z" fill="#ce1427"/>
  <path d="M42.7,24.18l0,1.3h0a.64.64,0,0,0,.61.68.65.65,0,0,0,.61-.69h0l0-2.55Z" fill="#fff" stroke="#030304" stroke-width="0.16"/>
  <path d="M43.28,25.35a3.86,3.86,0,0,0,.55-.55v.65h0a.59.59,0,0,1-.53.63.54.54,0,0,1-.51-.46C42.9,25.72,43.21,25.91,43.28,25.35Z" fill="#ce1427"/>
  <path
    d="M41.4,22.5c-.06-.12,0-.17,0-.21l-.23-.24.06.33c.07,0,.12,0,.18.12Z M42.35,24.06l-.06,0-.95-1.63,0,0Z M41.3,22.45a.07.07,0,0,1,0-.06s.06,0,.07,0,0,0,0,.06A.08.08,0,0,1,41.3,22.45Z M41,22.58c-.08-.11-.07-.16,0-.21l-.26-.21.11.33c.06,0,.11,0,.19.09Z M42.13,24l-.06,0-1.15-1.49,0,0Z M40.89,22.54s0,0,0-.06,0,0,.06,0,0,0,0,.06A0,0,0,0,1,40.89,22.54Z M40.92,22.91c-.09-.1-.09-.15-.06-.21l-.28-.17.14.31c.06,0,.11,0,.2.07Z M42.16,24.23l-1.31-1.35,0-.05,1.32,1.36Z M40.82,22.88s0,0,0-.06,0,0,.06,0,0,0,0,.06S40.83,22.9,40.82,22.88Z M43.47,22.5c.06-.11.05-.16,0-.21l.23-.24-.06.34c-.07,0-.12,0-.18.11Z M42.52,24.07l.06,0,1-1.64-.05,0Z M43.57,22.45s0,0,0-.05-.06,0-.07,0,0,.05,0,.06S43.56,22.47,43.57,22.45Z M43.88,22.58c.08-.1.07-.16,0-.21l.26-.2-.11.32c-.06,0-.11,0-.19.09Z M42.74,24l.06,0L44,22.54l-.05,0Z M44,22.55a.06.06,0,0,0,0-.07,0,0,0,0,0-.06,0s0,0,0,.06S44,22.56,44,22.55Z M44,22.91c.09-.09.09-.15.06-.2l.28-.18-.14.31c-.06,0-.11,0-.2.07Z M42.71,24.23,44,22.88l0,0L42.66,24.2Z M44.06,22.89s0,0,0-.07-.05,0-.06,0,0,0,0,.06A.07.07,0,0,0,44.06,22.89Z"
    fill="#eac105"
    stroke="#030304"
    stroke-width="0.02"/>
  <path d="M42.24,25.16l-.05.81S42,26,42,25.89s.1-.7.1-.76l.1,0Z M42.33,25c0,.64,0,.71,0,.71,0,.18.2.08.2.08a.15.15,0,0,1,.1,0v-.22c.32,0,.25-.21.25-.21a3.47,3.47,0,0,0-.14-.59Z" fill="#ce1427" stroke="#030304" stroke-width="0.09"/>
  <path d="M42.17,25.13a1.06,1.06,0,0,0,0,.25c0,.08.11.06.16.07V25l-.15.1Z M42.18,26.16c.13-.16.38,0,.38,0,.27.06.2-.25.2-.25,0-.62-.12-1.05-.12-1.05l-.4.26Z" fill="#002f63" stroke="#030304" stroke-width="0.09"/>
  <path d="M42.58,26.12l-.07-1.22.14-.09.13,1.13v0h0a.15.15,0,0,1-.2.16Z" fill="#fff" stroke="#030304" stroke-width="0.08"/>
  <path d="M42.17,26.17a.13.13,0,0,0,.16.16c.22,0,.16-.23.16-.23-.24-.07-.32.07-.32.07Z" fill="#002f63" stroke="#030304" stroke-width="0.04"/>
  <path
    d="M41.25,20.39a3.26,3.26,0,0,0-1.76.45c-.24.15-.3.2-.17.44l-.3.11-.29.11-.28.14a.82.82,0,0,0-.22.19l.49,0a.67.67,0,0,1-.07.11,4.05,4.05,0,0,0-.21.35l.1-.07.33-.2c.35-.17,1-.18,1.25-.49.07-.08,0-.13,0-.26a4.42,4.42,0,0,1,.51-.16A10.23,10.23,0,0,1,41.83,21a.2.2,0,0,0,.18-.16l0-.28h.92c0,.16-.15.37.13.44a9.69,9.69,0,0,1,1.24.05l.5.16a.84.84,0,0,1,0,.12.1.1,0,0,0,0,.13.83.83,0,0,0,.2.16,2.44,2.44,0,0,0,.52.18,2.05,2.05,0,0,1,1,.43c0-.08-.22-.36-.28-.46l.49,0a1.21,1.21,0,0,0-.49-.33l-.6-.22a.33.33,0,0,0,0-.06c0-.07.06-.15,0-.21a2,2,0,0,0-.71-.41,5.57,5.57,0,0,0-.66-.14c-.21,0-.63-.07-.63-.07s.06-.19-.07-.31A.6.6,0,0,0,43.2,20a10,10,0,0,0-1.55,0,.47.47,0,0,0-.3.09.32.32,0,0,0-.1.31Z"
    fill="#211c18"/>
  <path
    d="M41.38,20.72a.44.44,0,0,1,.19-.12,3.1,3.1,0,0,1,.86-.07c.2,0,.4,0,.6,0a.71.71,0,0,1,.46.16c0-.14,0-.26.06-.42s-.09-.22-.24-.25a5.52,5.52,0,0,0-.92,0,6.57,6.57,0,0,0-.91.05.27.27,0,0,0-.19.28,1.49,1.49,0,0,0,.09.39Z M39.58,21.52s0-.08.21-.19a3.54,3.54,0,0,1,.86-.32,3.14,3.14,0,0,1,.75,0,2.29,2.29,0,0,0,.37,0,.51.51,0,0,0,.15-.06.19.19,0,0,0,0-.13c-.09-.07-.32.16-.53.09s-.09-.13-.11-.21l-.07-.26a3.38,3.38,0,0,0-1.4.26,2.64,2.64,0,0,0-.53.31c-.09.09,0,.22.05.29l.1.12.05.05,0,.06Z M42.89,20.8c0,.14.08.18.2.2a6.93,6.93,0,0,1,1.11,0,2.81,2.81,0,0,1,.6.19,2.87,2.87,0,0,1,.39.2l.09.11a2.3,2.3,0,0,0,.2-.22c.05-.07.13-.19.05-.29a2.39,2.39,0,0,0-.53-.31,3.79,3.79,0,0,0-.72-.19c-.24,0-.71-.08-.71-.08s0,.44-.15.48-.35-.13-.53-.1Z M44.76,21.35c0,.07,0,.07.07.17a4.2,4.2,0,0,0,1.09.39,3.39,3.39,0,0,1,.38.2,3.73,3.73,0,0,0-.24-.36l.46,0,0,0a3.5,3.5,0,0,0-1-.43l-.08.09-.15.17s-.06.05-.12,0a.58.58,0,0,1-.2-.13.37.37,0,0,0-.2-.13Z M42.9,20.76a.58.58,0,0,1,.28.09.29.29,0,0,0,.16,0c.08,0,.09,0,.11-.08s-.12-.15-.19-.16l-.32-.05Z M42,20.76l0-.18c-.1,0-.56.07-.52.21s0,.08.1.08.23-.1.45-.11Z M39.62,21.54c.06.12.24-.09.34-.16a.28.28,0,0,1,.13-.07l0-.06a1.15,1.15,0,0,0-.25.12c-.08,0-.17.09-.19.17Z M44.77,21.31l.07,0c.14.09.32.32.39.23s-.11-.16-.16-.19l-.26-.12s0,0,0,.06Z M40.1,21.35c0,.07,0,.08-.08.18-.29.24-.78.25-1.09.38-.15.07-.24.13-.38.21l.24-.37-.46,0a0,0,0,0,0,0,0,3.73,3.73,0,0,1,1-.43l.07.09a1.29,1.29,0,0,0,.16.17.1.1,0,0,0,.12,0,.45.45,0,0,0,.19-.14.57.57,0,0,1,.21-.13Z"
    fill="#002f63"/>
  <path
    d="M40.17,20.68H40.1s0,0,0,0h0l0,0h0v0h0v0s0,0,0,0,0,0,0,0h0v0h0v0h0a0,0,0,0,1,0,0v0h0s0,0,0,0h.06a0,0,0,0,0,0,0l0,0h0v0s0,0,0,0h0v0h0a.1.1,0,0,0,0,0h0s0,0,0,0h0s0,0,0,0h0l0,0h-.06Zm0,0h.05l0,0,0,.05h0v0h0v0s0,.05,0,.05l0,0s0,0,0,0h0v0h0v0h0v0h0l0,0v0h0v0h0Z M40.59,20.54h-.07s0,0,0,0v0h0a0,0,0,0,0,0,0v.05s0,0,0,0a0,0,0,0,0,0,0h0v0h0s0,0,0,0h.16v-.05h0v-.08h0a0,0,0,0,1,0,0v0a0,0,0,0,1,0,0h0l0,0h-.07Zm0,0h0a0,0,0,0,1,0,0v0h0v0h0s0,0,0,0h0v0s0,0,0,0h0v.07h-.1s0,0,0,0h0v0h0s0,0,0,0h0s0,0,0,0h0v-.07h0Z M40.8,20.5v0h0s0,0,0,0v0h0s0,0,0,0h0l0,0H41v0s0,0,0,0v0s0,0,0,0h-.09s0,0,0,0,0,0,0,0h0v.06h0s0,0,0,0H41a0,0,0,0,0,0,0h0s0,0,0,0h0s0,0,0,0h0l-.05,0h0l0,0a0,0,0,0,1,0,0h0s0,0,0,0,0,0,0,0h.06s0,0,0,0v0h0s0,0,0,0v0h-.1s0,0,0,0h0Z M40.32,20.62h0a0,0,0,0,0,0,0h0v0h0s0,0,0,0h0v0h0v0h.07a0,0,0,0,1,0,0h0s0,0,0,0h0v0s0,0,0,0h0v0h0s0,0,0,0h0s0,0,0,0v0h0v0s0,0,0,0,0,0,0,0h0s0,0,0,0h0s0,0,0,0h-.07Z M42.61,20.09h-.07s0,0,0,0h0s0,0,0,.06a1.47,1.47,0,0,1,0,.21h0s0,0,0,0h.1a0,0,0,0,0,0,0v-.12h0s0,0,0,0v0s0,0,0,0h0v0h0l0,0h0s0,0,0,0h0l0-.07v0h0s0,0,0,0a0,0,0,0,0,0,0,.13.13,0,0,0,0-.06h-.13Zm0,0h0v0h0a0,0,0,0,1,0,0s0,0,0,0,0,0,0,0h0s0,0,0,0v-.13h0Z M41.84,20.12h-.11s0,0,0,0h0v.06s0,0,0,0,0,0,0,0v.09s0,0,0,0h0v0h.09a0,0,0,0,1,0,0,.38.38,0,0,1,0-.1h.09l0,0a0,0,0,0,0,0,0h0s0,0,0,0a0,0,0,0,0,0,0h0s0,0,0,0v0h-.09Zm0,0h0s0,0,0,0h0s0,.05,0,.06h-.07v0s0-.05,0-.06h0v0Z M42.09,20.11h0s0,0,0,0v0h0v0a0,0,0,0,1,0,0v0h0v0a0,0,0,0,0,0,0,0,0,0,0,1,0,0h.06s0,0,0,0a.08.08,0,0,1,0-.07h.08v0h0v0h.09l0,0h0v-.08h0s0,0,0,0v0h0s0,0,0,0h0v0h0s0,0,0,0h0v0Zm0,.07h0a.21.21,0,0,1,0,.06l0,.05v0H42v-.07h0V20.2h0Z M42.34,20.09h-.11v0h0v0h0l0,0h0l0,0h.05v.28h.08s0,0,0-.1v-.2h0s0,0,0,0h0l0,0h0v0s0,0,0,0Z M42.84,20.14v0s0,0,0,0v.23s0,0,0,0h0s0,0,0,0h.06s0,0,0,0h0v0h0a.49.49,0,0,1,0-.12.27.27,0,0,1,0-.09v0h0v0h-.09s0,0,0,0Z M45.24,20.94s0,0,0,.08v0l0,0a0,0,0,0,1,0,0,.25.25,0,0,0,0,.07l0,.05h0l0,0h0l.07.06v0l.07,0a.09.09,0,0,0,.05,0s0,0,0,0l0-.07v0a.22.22,0,0,0,0-.1L45.3,21l0,0h0l0,0Zm.06.09s0,0,0,0,0,.14,0,.18h0a.07.07,0,0,1-.07,0s0,0,0-.05a.26.26,0,0,1,0-.09v-.06s0,0,0,0h0l0,0Z M44,20.52s0,0,0,0v.05a.31.31,0,0,1,0,.09v.13h0s0,0,0,0h.08a.12.12,0,0,0,.1,0c.05,0,.05-.1,0-.13h0l0,0h0a.08.08,0,0,0,0-.12h0l0,0-.15,0Zm.08,0h0a.08.08,0,0,1,0,.08s0,0,0,0h0s0,0,0,0,0-.05,0-.06a.13.13,0,0,1,0-.06Zm0,.15h0s0,0,0,.07v0s0,0,0,0a.05.05,0,0,1-.07,0A.65.65,0,0,1,44.09,20.7Z M44.53,20.62s0,0,0,0,0,0,0,0v0a.69.69,0,0,0,0,.13.06.06,0,0,0,0,0v0s0,0,0,0l0,0h0s0-.06,0-.08v0h0s0,0,0,0,0,.06,0,.07h0a.08.08,0,0,0,0,0l0,0s0,0,0,0v-.14s0,0,0,0h0a.1.1,0,0,0,0-.15h0a.16.16,0,0,0-.09,0Zm.08,0h0s0,0,0,0,0,0,0,.07,0,0,0,0l0,0a.09.09,0,0,1-.07,0s0-.06,0-.07,0-.05,0-.07Z M45.06,20.83l0,0,0,0-.08.13,0,0s0,0,0,0,0,0,0,0l0,0h0v0s0,0,0,0l0,0h0s.05,0,.05,0h0s0,0,0,.06,0,0,0,0l0,0s0,0,0-.06,0,0,0,0a.28.28,0,0,1,0-.09v-.18S45.07,20.83,45.06,20.83Zm0,.07h0v.14h0L45,21l0,0,0,0a0,0,0,0,1,0,0s0,0,0,0Z M44.25,20.88s0,0,0,0l.07,0h0l.07,0a.15.15,0,0,0,0-.07h0s-.06,0-.1,0,0-.11,0-.13v0a.08.08,0,0,1,.07.05s0,0,0,0v0s0,0,0,0h0a.29.29,0,0,1,0-.09.06.06,0,0,1,.06,0h0l0,0s0-.06,0-.07a.66.66,0,0,0-.15,0h0s0,0,0,0l0,.13s0,.11,0,.13,0,0,0,0Z M44.75,20.77h0l0,0s0,0,0,0,0,0,0,0h0l0,.2v0s0,0,0,0,0,0,0,0l.07,0s0,0,0-.08,0-.13.06-.22,0,0,0,0,0,0,0,.06a.06.06,0,0,0,0,0v0l-.07,0h0l-.1,0a.13.13,0,0,0,0,.05v0Z M43.67,20.53h0s0,0,0,.06v.09a.85.85,0,0,1,0,.16h0s0,0,0,0h.16v-.07h0a.05.05,0,0,1-.05,0s0,0,0,0h0a2.62,2.62,0,0,1,0-.28s0,0,0,0Z M43.89,20.86H44s0,0,0,0v-.28s0,0,0,0H43.9s0,0,0,0v.27s0,0,0,0Z"
    fill="#eac105"/>
  <path
    d="M44.93,22.19s0,0,0,0a1.9,1.9,0,0,1,.22.55l-.08-.1-.18-.28a.07.07,0,0,0,0-.05,1.2,1.2,0,0,0,0,.23,3.7,3.7,0,0,0,.31.59.23.23,0,0,1-.07-.07C45,23,45.07,23,45,22.94a2.55,2.55,0,0,1-.13-.29,1.8,1.8,0,0,0-.08-.21s0,0,0,0a.14.14,0,0,0,0,.09c0,.11,0,.23.05.34a1.34,1.34,0,0,1-.23-.13l0,0h0s.12.17.15.19a1.63,1.63,0,0,1,.2.17,1.51,1.51,0,0,0,.2.35l.08.1L45,23.37a3,3,0,0,0-.32-.27s.06.07.08.1l.22.24c.07.09.15.17.21.26l.14.23-.08-.1L45,23.56a1.07,1.07,0,0,0-.25-.22.78.78,0,0,0-.22-.15s0,0,0,.06a4,4,0,0,1,.3.28,3513458830333.5,3513458830333.5,0,0,1,.22.24,1.92,1.92,0,0,1,.18.28l.09.14a3.69,3.69,0,0,1-.45-.44.52.52,0,0,0-.16-.14,1.78,1.78,0,0,0,.26.33l0,0,.1.11a1.86,1.86,0,0,1,.21.28l.06.13a1.82,1.82,0,0,0-.14-.19l-.08-.1A3.19,3.19,0,0,0,45,24l-.21-.12s0,.06.06.08l.08.07a2.89,2.89,0,0,1,.29.32l.13.18-.06-.06-.07-.06-.15-.12-.34-.16a1,1,0,0,0,.15.11,2.15,2.15,0,0,1,.24.18l.06.07a.64.64,0,0,1,.13.15l.11.16a1,1,0,0,1,.09.18l.12.43c0-.14-.11-.3-.16-.43s-.13-.37-.26-.32a.19.19,0,0,0-.09.12c0,.06-.08,0-.18.19a1.7,1.7,0,0,0-.13.4v.06s.05-.08.06-.11a1.59,1.59,0,0,1,.18-.34l-.1.46s0-.07.06-.1l.12-.34c.15.11.2.67.22.87a1.36,1.36,0,0,0-.11-.28l-.15-.26c-.09,0-.1.13-.12.2s-.05-.1-.11-.09-.08.07-.09.13a1.41,1.41,0,0,0,0,.2.77.77,0,0,0,0,.15l0,0,0-.39a.63.63,0,0,1,.16.38,1.63,1.63,0,0,1-.3.81l-.11.16s0,.05-.06.07l-.06.08a2.17,2.17,0,0,0,.22-.46,2.41,2.41,0,0,0,.12-.48.22.22,0,0,0,0-.08s0,0,0,.07a3.87,3.87,0,0,1-.48,1l0-.3s0,0,0,0l0,.06a1.73,1.73,0,0,1-.14.34s0-.07,0-.11l.06-.31v-.07s0,.06,0,.1a1.69,1.69,0,0,1-.13.31v0a1,1,0,0,0,0-.24v0s0,.06,0,.08l0,.1a3,3,0,0,1-.24.47c-.06,0,0,0,0,0h0l.53.11a4,4,0,0,1,.69,0,2,2,0,0,0,.23,0,.7.7,0,0,0-.24-.09l-.25-.07h.71l-.07,0a2.51,2.51,0,0,0-.55-.07l.64-.05c.06,0,.26.05.17,0a1.07,1.07,0,0,0-.43-.06l.41,0c.07,0,.5.08.35,0a2.25,2.25,0,0,0-.51-.13l.22-.12.5-.16c.19,0,.33-.12.08-.08l-.46.08.12-.07c.11-.06.25-.08.37-.13s0,0,0,0h0a.08.08,0,0,0-.07,0,1.5,1.5,0,0,1,.36-.11l.29-.08s.07,0,.08,0h0s-.54.06-.59.07l-.19,0c.16-.06.31-.13.47-.18a.48.48,0,0,0,.17-.05s-.06,0-.11,0a2.18,2.18,0,0,0-.44.11l-.17.05a2.57,2.57,0,0,1,.81-.23c.06,0,.1,0,.11-.05H46.7l-.27,0,.21-.17c.06,0,0-.06.13-.07a1.2,1.2,0,0,0,.19,0c-.07-.08-.09,0-.16-.08l.08-.1a.7.7,0,0,0,.06-.09s0,0,0,0h0l-.22.17s0,0-.08,0l-.28.05.29-.19.15-.09a.79.79,0,0,0,.16-.08l-.34.08c-.06,0-.25.11-.29.14a5,5,0,0,1,.55-.48s.08,0,.08-.07h0a1.65,1.65,0,0,0-.37.2,3.18,3.18,0,0,0-.35.26l.19-.19.06-.05s0,0,0,0l.1-.09.2-.18.11-.1s.09-.06.09-.1a3.62,3.62,0,0,0-.41.27l-.2.14-.19.14a2,2,0,0,1,.27-.38,4.27,4.27,0,0,1,.44-.41.5.5,0,0,1,.11-.1v0a.45.45,0,0,0-.17.11,2.74,2.74,0,0,0-.45.38l-.06.07a1.06,1.06,0,0,0-.19.23,2.75,2.75,0,0,0-.23.33,1.14,1.14,0,0,1,.3-.49l.26-.28,0-.05a.92.92,0,0,0,.28-.54,2,2,0,0,1-.13.17l-.06.06-.51.6a1.54,1.54,0,0,1,.17-.34l.2-.29c0-.07.28-.36.33-.41l0,0s0-.06.08-.09a.87.87,0,0,1,.1-.08s-.23.06-.26.09a2.29,2.29,0,0,0-.55.57,2.78,2.78,0,0,1,.22-.54c0-.07.1-.16.15-.22l.15-.24s-.07.06-.1.08l0,0a3.06,3.06,0,0,0-.45.71,1.54,1.54,0,0,1,.19-.46c.08-.14.17-.26.26-.39s-.19.15-.21.19a2.5,2.5,0,0,0-.18.24,4,4,0,0,0-.25.51v0a2.85,2.85,0,0,1,.25-.71,1.43,1.43,0,0,1,.14-.2l.06-.07.1-.14.11-.13c-.07,0-.31.24-.35.3a1.88,1.88,0,0,0-.16.23,1.33,1.33,0,0,1,.19-.42c.06-.09.13-.17.2-.26A.24.24,0,0,0,46.5,23c-.07,0-.37.34-.43.42l-.08.1-.1.16v0l0,0a2.72,2.72,0,0,1,.13-.49c0-.15.13-.28.19-.42s-.15.12-.18.17l-.12.22a5.16,5.16,0,0,1,.23-.6s0,.05-.08.1l-.21.34a1.11,1.11,0,0,1,.14-.34c-.1,0-.26.39-.3.5a.88.88,0,0,0,0,.15l0,.06a5.29,5.29,0,0,1,.09-.8s0,0,0,.05l0,.07a1.31,1.31,0,0,1,0,.15l-.08.32a8.24,8.24,0,0,0-.36-.79.54.54,0,0,0-.19-.18Zm.12,3.18a4.44,4.44,0,0,1,.19.62l0,0a.84.84,0,0,1,0,.12l-.07-.24c0-.09,0-.26,0-.29s0,0,0,.14,0-.08,0-.1-.07-.11,0-.19,0-.07,0-.08Z"
    fill="#216820"
    stroke="#828103"
    stroke-width="0.08"/>
  <path
    d="M39.58,27.07A3.11,3.11,0,0,1,39,25.73a.76.76,0,0,1,.33-.45 M39,25.72a4.39,4.39,0,0,1-.11-1.14,5.54,5.54,0,0,1,.28-1.34 M38.9,24.78a.51.51,0,0,1,.55-.46 M38.89,24.88c.39-.16.35-.5.42-.64a.76.76,0,0,1,.18-.28 M39.28,26.59c-.13-.34,0-.4,0-.4 M39.23,26.48a.47.47,0,0,0-.39-.2 M39.15,25.46a.42.42,0,0,0,0-.39"
    fill="none"
    stroke="#216820"
    stroke-width="0.32"/>
  <path
    d="M39,23.28a.07.07,0,0,1-.07.07.08.08,0,0,1-.08-.07.09.09,0,0,1,.08-.08A.08.08,0,0,1,39,23.28Z M39.22,25a.09.09,0,0,1-.08.08.08.08,0,0,1-.07-.08.08.08,0,0,1,.07-.09A.09.09,0,0,1,39.22,25Z M39.15,25.21a.08.08,0,0,1-.08.07.07.07,0,0,1-.07-.07.07.07,0,0,1,.07-.08A.08.08,0,0,1,39.15,25.21Z M38.94,25.92a.08.08,0,0,1-.08.08.07.07,0,0,1-.08-.08.08.08,0,0,1,.08-.08A.09.09,0,0,1,38.94,25.92Z M38.84,26.26a.09.09,0,0,1-.08.08.08.08,0,0,1-.08-.08.07.07,0,0,1,.08-.08A.08.08,0,0,1,38.84,26.26Z M39,26.39a.08.08,0,0,1-.08.08.09.09,0,0,1-.08-.08.08.08,0,0,1,.08-.08A.07.07,0,0,1,39,26.39Z M40.46,27.07A.06.06,0,1,1,40.4,27,.06.06,0,0,1,40.46,27.07Z M40.55,27.17a.06.06,0,1,1-.06-.06A.06.06,0,0,1,40.55,27.17Z"
    fill="#e42211"
    stroke="#216820"
    stroke-width="0.16"/>
  <path
    d="M40.46,27.44a.85.85,0,0,1-.06-.35 M39.79,26.93s0-.11,0-.17.24.07.34-.37a.6.6,0,0,0-.2.06v0a.66.66,0,0,1,0-.22.42.42,0,0,0,.07-.15s-.13,0-.37.27a.66.66,0,0,0-.21-.18.91.91,0,0,0,0,.43.32.32,0,0,0,.17.25.23.23,0,0,1,.11.19h.12v-.07Z M39.6,27.25a.2.2,0,0,1-.12.06c-.32,0-.5-.38-.5-.38s0,0,.09,0a.38.38,0,0,0,.21,0,.43.43,0,0,1,.28.11.32.32,0,0,1,.08.21s0,0,0,0Z M39.23,26.5a.53.53,0,0,0-.53,0s0,0,0,0c.21,0,.14,0,.23.13a.42.42,0,0,0,.41.16.32.32,0,0,1,.1.08,1,1,0,0,0-.23-.42Z M38.65,25.19c-.06-.05,0,0,0,0a.66.66,0,0,0-.5-.26.07.07,0,0,1,0,0c-.06,0,0,.12,0,.12.11.29.21.32.21.32s-.32-.08-.27,0a.65.65,0,0,0,.32.23.52.52,0,0,0,.35,0,.42.42,0,0,0,.09.12A.38.38,0,0,1,39,26a2.27,2.27,0,0,0-.09-.54,1.23,1.23,0,0,0-.3-.23Z M40.36,27.52a.17.17,0,0,0-.12.12c-.12.16-.53,0-.53,0s-.1-.07-.1-.07a.52.52,0,0,0,.15-.11.8.8,0,0,1-.25-.45A.75.75,0,0,1,40,27a.15.15,0,0,0-.14-.13s0-.05,0-.05a.77.77,0,0,1,.47.22.42.42,0,0,1,.07.32c0,.16,0,.15,0,.15Z M39,26.14a.39.39,0,0,0-.27,0c-.08,0-.24-.06-.24-.06a.91.91,0,0,1-.25-.28s.18,0,.18,0c.25,0,.3.05.3.05s.11.13.16.16.12.09.12.09.05.08,0,.07Z M39.29,26.22a.22.22,0,0,1,.27,0c.24,0,.31-.24.31-.24a1.21,1.21,0,0,1,.1-.16c0-.07-.1,0-.1,0-.21.05-.21.07-.21.07l0-.33c0-.05,0,0,0,0-.3.17-.33.29-.33.29l-.12-.23c0-.09-.07,0-.07,0-.06.27,0,.3,0,.3a.46.46,0,0,0,.08.19c.07.09.07.12.07.12Z M41,27c-.05,0-.17.21-.17.21a.6.6,0,0,0-.34-.33s0,.09,0,.09a.31.31,0,0,1,0,.26c0,.11,0,.13,0,.13-.24-.12-.25-.11-.25-.11a1.2,1.2,0,0,0,.18.43,1.85,1.85,0,0,1,.41-.09l.14,0A.85.85,0,0,0,41,27Z M39.13,25.46a.24.24,0,0,1,.15.17c0,.13.39.16.39.16.29,0,.26-.09.26-.09-.17-.14-.12-.13-.19-.2a.45.45,0,0,0-.29-.12c-.21,0-.26,0-.26,0s-.06.09-.06.09Z M38.79,25a.84.84,0,0,1,.16-.58c.19.36.16.46.16.46a2.27,2.27,0,0,1-.17.42c0-.18-.13-.21-.15-.3Z M38.66,25.06a.78.78,0,0,1-.47-.27c.36-.1.44,0,.44,0A2.22,2.22,0,0,1,39,25c-.17,0-.22.07-.31.08Z M38.48,24.71a.37.37,0,0,1-.3-.13c-.2-.27-.13-.36-.13-.36s0,0,0,0a.34.34,0,0,0,.18.07c-.33-.2-.11-.66-.11-.66s.05.06.05.06a.5.5,0,0,0,.18.2c.07.09.07.13.07.13,0-.16.07-.12.07-.12s.18.22.2.3c.05.23,0,.26,0,.26a1.27,1.27,0,0,0,0,.24.34.34,0,0,0-.23,0Z M39.26,25.27c.08-.11,0-.31,0-.31,0-.21.29-.42.29-.42a.58.58,0,0,1,.08.28l.3-.08a.73.73,0,0,1-.12.34c.2.06.27,0,.27,0a.43.43,0,0,1-.52.35.94.94,0,0,0-.3-.13Z M38.59,24c0-.27.07-.28.07-.28s.05.13.09.15a.31.31,0,0,1,.16.26c0,.21,0,.19,0,.19-.24,0-.29-.32-.29-.32Z M39.37,24c.08-.3,0-.33,0-.33s-.1.12-.15.12A.35.35,0,0,0,39,24c-.08.24,0,.23,0,.23a.35.35,0,0,0,.45-.24Z M38.6,23.46c0-.31.09-.32.09-.32s.05.15.09.17a.35.35,0,0,1,.2.3c0,.25,0,.23,0,.23a.35.35,0,0,1-.34-.38Z M39.48,23.54c.09-.31,0-.34,0-.34s-.1.13-.15.13a.35.35,0,0,0-.3.21c-.08.23,0,.23,0,.23A.35.35,0,0,0,39.48,23.54Z M39.84,24.39c.25-.2.23-.25.23-.25s-.16,0-.2,0a.34.34,0,0,0-.36,0c-.21.14-.17.16-.17.16a.35.35,0,0,0,.5.08Z M39.83,24.55c.24-.11.23-.15.23-.15s-.13,0-.16,0a.31.31,0,0,0-.3-.06c-.19.07-.16.09-.16.09a.29.29,0,0,0,.39.14Z M39,23.11a.91.91,0,0,1,.19-.66c.06.18.09.31.09.31a.86.86,0,0,1,.43-.26v.18a.74.74,0,0,0,.21-.05.94.94,0,0,1-.32.45.38.38,0,0,1-.24.05.34.34,0,0,0-.25.2c0-.13,0,0-.11-.22Z M39.43,24.05a.3.3,0,0,1,.33-.1.47.47,0,0,0,.34-.17.5.5,0,0,1,.13-.17s0,0,0,0l-.11,0c.08-.31,0-.32,0-.32a.08.08,0,0,0,0,0c0,.14-.24.14-.24.14,0-.21-.06-.18-.06-.18a.25.25,0,0,1-.09.08c-.2.2-.2.28-.2.28a1.68,1.68,0,0,1,0,.43Z"
    fill="#216820"/>
  <path
    d="M39.39,25.17l.13-.1s0,0,0-.06,0,0,0-.07l0,.09.12-.08s0,.05-.08.08l-.09.06-.18.15a1.94,1.94,0,0,1,.22,0c.17,0,.26-.27.32-.42a.91.91,0,0,0-.34.11c-.11.08-.1.14-.17.27Z M38.94,25.8a.53.53,0,0,0-.06-.1,1.43,1.43,0,0,0-.11-.21.31.31,0,0,1-.05-.1s.06.08.08.1v-.1s0,0,0,.06a.3.3,0,0,0,.06.19l.12.2a.32.32,0,0,0,0-.09c0-.13.05-.29-.28-.48l-.08-.05c0,.16,0,.42.17.51l.09,0,.07,0Z M38.87,23.78l0-.12s0,0,0-.05l0-.05,0,0a.59.59,0,0,0,0-.08s0,0,0-.07.12.16.13.2a.57.57,0,0,0,.11.22s0-.05,0-.08,0-.16,0-.31-.14-.11-.19-.19l0-.07a.74.74,0,0,0,0,.17.47.47,0,0,0,.09.33l.14.07Z M39.28,23a.6.6,0,0,1,.08-.08l.08-.07v-.07s0,0,0,.05l.09-.13s0,.09,0,.11a.31.31,0,0,1-.07.09l-.16.19.09,0a.25.25,0,0,0,.21-.14,1.15,1.15,0,0,0,.11-.36.74.74,0,0,0-.37.25.78.78,0,0,0,0,.19Z M38.39,24.33c0-.11-.15-.23-.16-.28l0-.13s0,0,0,0a.34.34,0,0,0,0,.09l0,.09a.19.19,0,0,1,0-.08s0,.08,0,.14l.07.11c0-.08.06-.22,0-.34s-.07-.06-.12-.1l-.08-.13a.51.51,0,0,0,.08.52l.08,0,0,0,0,0Z M39,23.77c.06-.05,0-.07.17-.17l.09-.08.08-.09s-.08.12-.1.15h0s0,0-.08,0-.14.12-.17.15l.08,0c.08,0,.13,0,.22-.11a.89.89,0,0,0,.14-.33.87.87,0,0,0-.32.15c-.09.09-.08.16-.12.24s0,0,0,.08Z M38.51,25.34l-.09-.07s0,0-.07,0l-.06,0h.07l0,0a.36.36,0,0,1-.09-.08s0,0,0,0l.22.17.1.06a.44.44,0,0,0-.17-.26l-.34-.1a1.34,1.34,0,0,0,.13.27c.1.13.11.09.19.08Z M38.67,24.57l-.13-.42s0,0,0,.08l0,.09s0,0,0-.06,0,.06,0,.08,0,0,0,.07l.06.16v-.09a.36.36,0,0,0,0-.27,1,1,0,0,0-.18-.24,1,1,0,0,0,0,.18.37.37,0,0,0,.08.33l.11.09Z M38.28,25.84a1.12,1.12,0,0,0,.21.23h.36L38.69,26c-.07,0-.07,0-.18,0s0,0,.08,0a.55.55,0,0,0-.13-.05l0,0s0,0,0,0h0l.37.14a.32.32,0,0,1-.1-.1c-.15-.18-.3-.12-.48-.11Z M39.36,26.11l.09-.05c.14,0,.09,0,.18-.1l0,.07c.07,0,.08-.06.13-.11s0,.06,0,.08-.16.05-.21.07l-.09.05c.1,0,.09,0,.18,0s.23-.16.29-.26l0-.08a.77.77,0,0,0-.31.12.38.38,0,0,0-.12.09.12.12,0,0,0,0,0s0,0-.07.05Z M38.28,24.77a.4.4,0,0,0,.36.23.2.2,0,0,0,.11-.06s0,0,0,0h0a.59.59,0,0,0-.23,0l0,0-.09,0-.07,0h0a1.28,1.28,0,0,0,.34.07.38.38,0,0,0-.21-.11c-.1,0-.14,0-.26,0Z M39.22,26.05l0-.31s0,0,0,.08l.06.28a.93.93,0,0,0,0-.29l-.11-.21a.69.69,0,0,0,0,.25.21.21,0,0,0,.07.18l0,0Z M39.72,23.86l.06-.1c0-.06.06,0,.12-.08s0,0-.07,0l.1-.14c-.06,0-.18.21-.21.25l-.07.09c0-.13,0-.25.09-.31l.34-.22a.83.83,0,0,1-.08.28.47.47,0,0,1-.28.21Z M39,24.25c0-.05.14-.09.16-.12l.13-.2s-.05.05-.07.08l-.06.08c0-.07,0,0,0-.09s0,.11,0,.14l-.11.07a.37.37,0,0,1,.13-.28l.24-.13a.56.56,0,0,1-.1.34c-.07.09-.12.08-.19.1Z M39.41,24.28a1.27,1.27,0,0,0,.29,0l.07,0s0,0,0,0a.17.17,0,0,1,.1,0s0,0-.05,0l-.19,0-.26,0c.17.06.19.15.38.08s.18-.11.27-.23c-.23.06-.26-.14-.48,0l-.11.11Z"
    fill="#07873f"/>
  <path
    d="M41.33,28.12l.23.1.17.32c.06.05.05,0,.13.05l-.41.17a.09.09,0,0,0,0,.17c.06,0,.18,0,.23-.06a3.76,3.76,0,0,0,.56-.3s.16-.11.19-.1l.71.4c.06,0,.16.09.22.05s.06-.05,0-.09,0,0-.07-.07l-.39-.17.09,0s0-.07,0-.06l.18-.29.22-.08c0-.2-1.67-.33-2.1,0Z M42.55,28.17c0,.14,0,.1.16.1h.23l-.19,0-.18,0v.06l.42.12c0-.09,0-.16,0-.23a.19.19,0,0,0,0-.09v-.11c.08.05,0,.2,0,.21l0,.23c.09,0,0-.16.05-.23a.16.16,0,0,0,0-.12s0-.09,0-.1-.28.05-.36.07a.5.5,0,0,0-.13,0Z M41.77,28.52c-.07-.11,0-.16,0-.23s-.06,0,0-.21a.54.54,0,0,0,0,.11c0,.16,0,0,0,.32l.45-.12v-.08l-.39,0,.38,0s0,0,0-.05v-.05c-.11,0-.4-.13-.46-.09a.28.28,0,0,0,0,.11.36.36,0,0,0,0,.11c0,.09,0,.17.05.23Z M42.31,28.11c-.14,0,0,.13,0,.2s0,.09,0,.11h.16s.09,0,.09-.07a.58.58,0,0,1,0-.14c0-.05,0-.11,0-.11Z M41.45,28.8c-.06,0-.05.13.07.09S41.54,28.77,41.45,28.8Z M43.22,28.8c0,.05,0,.07,0,.08s.07,0,.09,0,0-.05,0-.07,0,0,0,0Z"
    fill="#216820"/>
  <path d="M41.44,28.81c-.06,0,0,.13.08.09S41.54,28.78,41.44,28.81Z M43.22,28.81c0,.05,0,.07,0,.09s.07,0,.1,0,0-.06,0-.08,0,0,0,0Z" fill="#ffec06"/>
  <path
    d="M40.42,27.66a4.5,4.5,0,0,0-.51.2,1.09,1.09,0,0,1-.15.08c-.09-.13-.21-.34-.3-.45a.58.58,0,0,0-.2-.18c-.14-.06-.19,0-.27,0l-.06-.11a3.36,3.36,0,0,0-.39-.49l-.12-.14,0-.05.06.26.06.27L38.28,27a.86.86,0,0,0-.28,0l.09.08a1.07,1.07,0,0,1,.31.51,1.65,1.65,0,0,0,.38.6.67.67,0,0,0,.19.14c.18.07.18,0,.24,0a3.19,3.19,0,0,0,.31.44l.08.09a.72.72,0,0,0,.7.18,1.09,1.09,0,0,0,.27-.11c.32-.18.16-.33.13-.48s.51-.15.66-.18a7.73,7.73,0,0,1,2.1,0,6.84,6.84,0,0,1,.74.21s0,.1-.05.14a.85.85,0,0,0,0,.13.31.31,0,0,0,.19.2.89.89,0,0,0,.26.11.92.92,0,0,0,.33,0,.71.71,0,0,0,.46-.29l.08-.1a.44.44,0,0,0,.08-.11l.14-.23a.32.32,0,0,0,.08.06.44.44,0,0,0,.16,0,.67.67,0,0,0,.19-.14,1.5,1.5,0,0,0,.38-.61,1.06,1.06,0,0,1,.4-.58h-.14l-.14,0a.37.37,0,0,0-.11.05l-.11.06.06-.27c0-.07,0-.18.06-.26l-.08.1a1.54,1.54,0,0,0-.17.19l-.08.09-.15.19-.07.11-.05.11c-.37-.2-.54.29-.78.6a2.8,2.8,0,0,0-.64-.27l-.23-.06-.53-.11c-.1,0-.23,0-.33,0a8.28,8.28,0,0,0-2.11,0l-.32.05-.55.13Z"
    fill="#030304"/>
  <path
    d="M40,28.72s0,0,0-.06a.42.42,0,0,1,.18-.14,4.56,4.56,0,0,1,.88-.31,3.61,3.61,0,0,1,.67-.13l.17,0h.18a5.08,5.08,0,0,1,.78,0h.35a4.81,4.81,0,0,1,.68.13,4.16,4.16,0,0,1,.88.31c.14.07.12.07.2.2a.93.93,0,0,0,.24-.32,1,1,0,0,0,.09-.18c0-.1,0-.13-.07-.17a2.39,2.39,0,0,0-.77-.36,8,8,0,0,0-4,0,2.14,2.14,0,0,0-.76.35l-.08.06c-.06.08,0,.23.08.3s.07.13.1.17a1,1,0,0,0,.14.15Z M38.79,27.67a.37.37,0,0,1,.26.18,5,5,0,0,0,.52.81.71.71,0,0,0,.25.2.69.69,0,0,0,.38,0,.85.85,0,0,0,.33-.1.58.58,0,0,0,.15-.12.38.38,0,0,0,0-.14c-.1,0-.27.16-.38.24s-.29.08-.44-.05a1.16,1.16,0,0,1-.25-.36.33.33,0,0,1-.08-.24l.16-.16-.1-.15-.09-.15a.89.89,0,0,0-.23-.27c-.05,0-.17-.12-.25-.07s0,0-.07.06l-.11.13a.46.46,0,0,0-.09.15Z M38.57,27.17s-.15-.1-.2-.12L38.12,27a1.1,1.1,0,0,1,.14.15,2.92,2.92,0,0,1,.27.59,1.44,1.44,0,0,0,.18.25l.21.22a.18.18,0,0,0,.13.05s.09,0,.1,0-.1-.11-.16-.14a1.15,1.15,0,0,1-.2-.14c-.14-.14,0-.32.08-.45l.07-.09s0-.08,0-.1l-.13-.21-.31-.35c0,.07,0,.16,0,.23s.05.18.06.22Z M40.71,28.5l-.06-.14a3,3,0,0,0-.56.24s-.14.1-.08.16.38-.08.51-.18a.3.3,0,0,1,.19-.08Z M39.2,28.18s0-.06-.11-.12a2.46,2.46,0,0,1-.27-.17s-.07-.05-.06-.11a.08.08,0,0,1,.05-.07c.18,0,.39.45.39.47Z M46.11,27.68a.41.41,0,0,0-.27.18,5.51,5.51,0,0,1-.52.81.65.65,0,0,1-.24.19.63.63,0,0,1-.39.05.72.72,0,0,1-.33-.11.77.77,0,0,1-.15-.11.38.38,0,0,1,0-.14c.1,0,.28.16.39.23s.29.09.43,0a1.08,1.08,0,0,0,.26-.37.33.33,0,0,0,.07-.23L45.17,28a1.19,1.19,0,0,1,.09-.15s.06-.09.1-.15a.86.86,0,0,1,.22-.27c.06-.05.17-.12.26-.07l.06.06.12.13a.75.75,0,0,1,.09.15Z M46.33,27.18s.14-.1.2-.12l.24-.08-.13.14a2.76,2.76,0,0,0-.28.6,1.38,1.38,0,0,1-.17.25,2.28,2.28,0,0,1-.22.22.18.18,0,0,1-.13,0s-.08,0-.09,0,.1-.12.16-.15a.91.91,0,0,0,.19-.13c.15-.15,0-.32-.07-.45L46,27.39s0-.08,0-.1a1.93,1.93,0,0,1,.13-.21c.07-.08.23-.27.31-.35a1.89,1.89,0,0,1,0,.23,2.25,2.25,0,0,0-.05.22Z M44.18,28.51l.06-.14a3,3,0,0,1,.56.24s.14.1.09.16-.38-.08-.52-.18a.26.26,0,0,0-.19-.08Z M45.7,28.19s0-.06.11-.12.23-.13.27-.17a.15.15,0,0,0,.05-.12.06.06,0,0,0-.05-.06c-.18,0-.39.45-.38.47Z"
    fill="#ce1427"/>
  <path
    d="M40.63,28h0s0,0,0,0h0Z M41.36,27.68h-.14s0,0,0,0,0,0,0,0h0v.11s0,.09,0,.1h.2a.11.11,0,0,0,0-.08v0h0l0,0s0,0,0,0l0,0h0a0,0,0,0,0,0-.05h0l0,0h-.06Zm0,0h0s0,0,0,0v0h0v0h-.06v-.06s0,0,0,0h0Zm0,.14h0l0,0a0,0,0,0,0,0,0,.17.17,0,0,1,0,.07h0c-.05,0-.05,0-.05,0s0,0,0,0v0s0,0,0-.05Z M40.36,27.93H40.3l-.06,0,0,0h0v0h0s0,0,0,0h0a0,0,0,0,0,0,0h0s0,0,0,0v0h0a0,0,0,0,1,0,0v0h.09s0,0,0,0h0v0h0v-.05h0l0,0s0,0,0,0h.05a.08.08,0,0,0,.08,0,0,0,0,0,0,0,0l0,0h0l0,0h0l0-.05h0a.09.09,0,0,0,0,0s0,0,0,0h0l0,0h0Zm0,0h0s0,0,0,0a.06.06,0,0,1,0,.07l0,0h0V28h0v0s0,0,0,0h0Z M40.84,27.78H40.7s0,0,0,0a0,0,0,0,1,0,0s0,0,0,0,0,0,0,0v0s0,0,0,0V28a.11.11,0,0,1,0,.08h.06s0,0,0,0,0,0,0,0a.06.06,0,0,1,0,0l0-.05.05,0,0,0,0,0h0a.06.06,0,0,0,0-.06h0v0h0a0,0,0,0,0,0,0h-.06Zm0,0Zm-.06,0h0a.11.11,0,0,1,0,.05v0h0v0l0,0h0v0s0,0,0,0v0h0s0,0,0,0Z M42.23,27.58h0v.05h0s0,0,0,0,0,0,0,0h0v.1h0l0,.05h.07s0,0,0,0h0v0s0,0,0,0h.08v0h0a.06.06,0,0,1,0,.06h.08s0,0,0,0h0v0h0l0-.08h0s0,0,0,0h0v0a.19.19,0,0,1,0-.08Zm0,.07v.06s0,0,0,0v0h-.06v0a.08.08,0,0,0,0,0h0v0s0,0,0,0Z M40.47,27.88s0,0,0,0a.11.11,0,0,1,0,.05V28s0,0,0,0h0s0,0,0,.05h0s0,0,0,0h0v0l.13,0h.06v-.07h0s0,0,0,0l-.05,0h0v0s0,0,0,0h0V28h.09V28a.08.08,0,0,0,0,0s0,0,0,0h0l0,0h0a.25.25,0,0,1,0-.09h.08a.05.05,0,0,0,0,0h0v0a0,0,0,0,1,0,0h0l-.07,0h-.06Z M41.12,27.72a0,0,0,0,0,0,0l0,0a.11.11,0,0,0,0,0v0s0,0,0,.06h0s0,0,0,0v0a0,0,0,0,1,0,0l0,0h0l0,0h0v0h0a0,0,0,0,1,0,0,0,0,0,0,0,0,0v-.05s0,0,0,0v0s0,0,0,0v0H41s0,0,0,0a0,0,0,0,1,0,0v.09s0,.05,0,.06h0v0h0s0,0,0,0a.08.08,0,0,0,.08,0h0l0,0v0s0,0,0,0v0c0-.05,0,0,0-.06v-.06a.06.06,0,0,1,0,0v0s0,0,0,0a0,0,0,0,1,0,0h-.06Z M42.1,27.82h0l0,0H42v0a.14.14,0,0,1,0-.09h0s0,0,0,0l0,0s0,0,0,0h0s0,0,0,.05a0,0,0,0,0,0,0v0h0a.11.11,0,0,0-.08,0h0l0,0,0,0v0a.06.06,0,0,0,0,0s0,0,0,0v0s0,0,0,0h0l0,0h.11l0,0,0,0h0Z M41.5,27.65s0,0,0,0h0s0,0,0,0v.05h0s0,0,0,0v.06s0,0,0,.06v0h.19a.17.17,0,0,0,0-.07s0,0,0,0v0h-.08s0-.06,0-.07,0-.09,0-.11,0,0,0-.07,0,0,0,0H41.5Z M41.73,27.62h0s0,0,0,0a0,0,0,0,1,0,0v.2s0,0,0,0,0,0,0,0h.1s0,0,0,0,0-.07,0-.1v-.08a.06.06,0,0,0,0,0v-.06h0s0,0,0,0Z M42.59,27.57H42.5s0,0,0,0h0s0,.18,0,.22,0,.05,0,.08h.17s0,0,0,0h0v0h0v0s0,0,0-.05,0,0,0,0h0a0,0,0,0,1,0,0l0,0h0l0,0h0S42.63,27.57,42.59,27.57Zm0,0h0v0h0s0,0,0,0h0v0s0,.06,0,.07h0a.06.06,0,0,1,0,0h-.08a1.92,1.92,0,0,1,0-.24h0Z M42.88,27.58h-.07v0l0,0v.14h0l0,.06h.14s0,0,0,0h0v0l0,0v0s0,0,0,0a.06.06,0,0,0,0,0v0h0s0,0,0,0v0l0,0h0A.06.06,0,0,0,42.88,27.58Zm0,0h0s0,0,0,0v.05a0,0,0,0,1,0,0s0,0,0,.05v0h0v0h0v0h-.06V27.7a.06.06,0,0,1,0,0h0l0,0h0Z M44.57,28h0l0,0h0v0l0,.05h0l-.07.12h0a0,0,0,0,1,0,0h0s0,0,0,0h0v0h0l0,0h0v.07h.06v0h0s0,0,0-.06,0,0,0-.07V28Zm0,.06v.15h0l0,0,0,0s0,0,0,0h0v0h0Z M44.25,28.18v0h0a.06.06,0,0,1,0,0v0h0s0,0,0-.05h0s0,0,0,0,0,0,0,0l0,0h0v.05h0s0,0,0,0v.05h0v0h0s0,0,0,0v-.08s0,0,0,0V28h0s0,0,0,0,0,0,0,0h0l0,0h0a.11.11,0,0,1,0,.05v0h0v0h0v0h0a0,0,0,0,0,0,0v0h0v0h0s0,0,0,0h0s0,0,0,0h0v0s0,0,0,0a0,0,0,0,1,0,0h-.06s0,0,0,0v0s0,0,0,0v.09h0s0,0,0,.05v0h0s0,0,0,0h0Z M43.41,28h.06v0a.25.25,0,0,1,0-.09v-.1a0,0,0,0,0,0,0h0l0,.06h0l0,.1h0l0,.06h0s0,0,0,0v0h0s0,0,0,0h0v0h0a.07.07,0,0,0,0-.05h0s0,0,0-.06h0a.08.08,0,0,1,0,0h0s0,0,0,0h0s0,.08,0,.11v0a.06.06,0,0,0,0,0,0,0,0,0,0,0,0,0,0,0,0,0,0,0v0l0,0h0a0,0,0,0,1,0,0l0-.07h0v.07s0,0,0,.05v0s0,0,0,.05h0v0s0,0,0,0h0s0,0,0,0Z M44.11,27.81h0l0,0h0l0,.06h0v0h0s0,0,0,.05l0,.06h0s0,0,0,0h0a0,0,0,0,1,0,0v0h.07v.07h.07V28h0v-.16c0-.06,0,0,0-.05Zm0,.06V28h-.06a.05.05,0,0,1,0,0h0s0,0,0,0v0h0s0,0,0,0Z M43.79,27.93V28s0,0,0,0h0s0,0,0,0h0v0l0,0h.08l0,0,0,0h0l0,0h-.07v0a0,0,0,0,1,0,0h0v-.08h0v0l0,0s0,0,0,0h0l0,0v0a.09.09,0,0,1,0,.05h0v0h0a0,0,0,0,0,0,0h0l0,0h0a.09.09,0,0,0-.07,0l0,0h0l0,0a0,0,0,0,1,0,0h0s0,0,0,0v.09Z M43.69,27.71h0v.08s0,0,0,0h0s0,0,0,.06v0s0,0,0,0v0s0,0,0,0h.07v0s0,0,0-.06v0s0,0,0,0h0v-.06s0,0,0,0a0,0,0,0,1,0,0h-.08Z M43.3,28h.09v0s0,0,0-.05v0h0v-.13s0,0,0,0v0h-.07s0,0,0,0h0v.05h0s0,.05,0,.06v.05h0v.11h0Z"
    fill="#eac105"/>
  <path
    d="M39.72,26.82v-.26a.75.75,0,0,0,0-.2s0,0,0,0l0,.05a.26.26,0,0,1,.07-.15s-.05.09-.06.2v.25s0,0,0,0l0,0s0,0,.05-.06a.4.4,0,0,0,0-.35l0-.19a1,1,0,0,0-.16.12.38.38,0,0,0-.13.4.31.31,0,0,0,0,.1.49.49,0,0,0,0,.11Z M39.66,27.54a.85.85,0,0,0,.17.06.34.34,0,0,0,.36-.05.68.68,0,0,1,.12-.12,1.29,1.29,0,0,0-.21.05c-.05,0-.06.05-.1.09l0,0s0-.07.07-.1h-.16s.05,0,.12,0,.17-.05.32-.07h0c-.23,0-.28-.15-.55,0Z M39.57,27.19l0-.08c-.1,0-.13,0-.26-.05s0,0-.05-.06l.15.09s0,0-.06-.1h0l.07.1h.1a.11.11,0,0,0,0-.06s0,0,0-.06a.22.22,0,0,0-.12,0,.41.41,0,0,0-.16,0l-.15,0a.64.64,0,0,0,.08.14.38.38,0,0,0,.38.17l.08,0Z M38.78,26.48h0a.23.23,0,0,1,.11.08l.1.11a.61.61,0,0,0,.33.1.2.2,0,0,0-.06-.07c-.1-.11-.08-.11-.15-.1H39s.07,0,.11,0l-.07,0s0,0-.07,0,.16,0,.23.07l.15.17-.08-.16a.39.39,0,0,0-.42-.16l-.1,0Z M40.48,27.61l.1,0a.35.35,0,0,1-.06-.09c-.05-.06-.05-.07,0-.1h0a.11.11,0,0,0,0,.05l0,0s0,.06.08.08,0-.08,0-.11,0,0,0,0v.09l.12,0a.72.72,0,0,0-.37-.25l0,.16c0,.07,0,.1.06.16Z"
    fill="#07873f"/>
  <path
    d="M43.55,28.34l-.17.09.1.2a4.14,4.14,0,0,1-.43-.13.24.24,0,0,0,0-.15l0-.14.22.07.23.06Z M41.22,28.37l.18.09-.1.2c.07,0,.34-.1.43-.13a.24.24,0,0,1,0-.15l0-.14-.22.07a.94.94,0,0,1-.24.06Z M42.54,28.43c.44.1.41.16.41.16s-.16,0-.16,0c-.34-.12-.25-.15-.25-.15Z M42.27,28.43c-.44.1-.41.16-.41.16s.16,0,.16,0c.34-.12.25-.15.25-.15Z M41.87,28.65a1,1,0,0,0,.38-.13s.19,0,.19,0l.1,0a.94.94,0,0,0,.35.15c.18,0,.19-.15.19-.15s0-.12,0-.12a.24.24,0,0,0,0-.27c0-.05-.32,0-.32,0-.18.08-.2,0-.2,0s-.24-.06-.32,0a.94.94,0,0,1-.23-.06c-.21-.08-.24,0-.24,0a.23.23,0,0,0-.05.18.31.31,0,0,0,0,.1c-.05.26.16.27.16.27Z"
    fill="#ce1427"
    stroke="#030304"
    stroke-width="0.06"/>
  <path
    d="M42.29,28.13c-.19,0,0,.18,0,.27s0,.12,0,.14a.67.67,0,0,0,.2,0c.07,0,.12,0,.11-.09a.84.84,0,0,1,0-.18c0-.07,0-.14-.06-.15Z M42.55,28.24c.5,0,.46-.08.46-.08 M42.56,28.39c.49.07.43.14.43.14 M42.24,28.38c-.46.1-.42.17-.42.17 M42.19,28.23c-.47,0-.42-.05-.42-.05"
    stroke="#030304"
    stroke-width="0.11"/>
  <path
    d="M45.9,24.93l-.07.24a1,1,0,0,1,0-.18,2.66,2.66,0,0,1,.61-1.22s-.15.24-.26.47A5,5,0,0,0,45.9,24.93Zm.44,1.36-.37.29.45-.07c.29,0,.45-.06.43,0h0l-.49.09-.49.09c-.39.29-.65.44-.77.39a3.79,3.79,0,0,1,.5-.33c-.22,0-.26.05-.28,0a0,0,0,0,1,0,0h0c-.06-.29-.12-.5-.16-.66a2.34,2.34,0,0,1-.12.56,2.13,2.13,0,0,1-.4.6s0,0,0-.08A2.09,2.09,0,0,0,45.13,26c-.26-.84-.29,0-.29,0,0-.5.09-.42.09-.42a.86.86,0,0,1,.21.37v0c0-.24,0-.27,0-.08s0,.1,0,.15a4.26,4.26,0,0,1,.17.77l.41-.08.06,0c.12-.08.26-.17.39-.27l-.33.07-.11,0-.16.14h0c-.1.08-.16.13-.16.11s0,0,0,0c0-1.3-.13-1.63-.26-1.62a2,2,0,0,0-.1.26c0-.11.06-.2.08-.26-.14.05-.28.45-.28.45.15-.54.28-.58.33-.58s.07-.13.07-.13c.35.07.33,1.59.33,1.59-.08-1.37-.24-1.55-.36-1.42.37.4.21,1.58.19,1.7a.56.56,0,0,1,.13-.18h0a.17.17,0,0,1,.07-.09,3.36,3.36,0,0,1,.9-1.4c.13-.11.26-.19.26-.17a1.32,1.32,0,0,1-.18.18,4.21,4.21,0,0,0-.9,1.29l0,.06h0l.08-.14a1.66,1.66,0,0,1,.71-.67c.27-.17.36-.22.36-.2s0,.06-.08.09a4.5,4.5,0,0,0-.83.71,2.6,2.6,0,0,1,.61-.41l.19-.07s-.09.08-.24.17-.23.17-.37.29a2.92,2.92,0,0,1,.6-.19l.23-.2a1.37,1.37,0,0,1-.11.18H47a.9.9,0,0,1-.24.08l-.37.3.13,0c.24,0,.38,0,.36,0l-.41.08Zm-.93-3.11s0,.06,0,.06,0-.06,0-.24a1,1,0,0,0-.25-.54h0c0-.06-.09-.11-.1-.1a.44.44,0,0,0,.06.1A4.07,4.07,0,0,1,45.41,23.18Zm.52.78a5.47,5.47,0,0,1,.32-.55l.13-.17-.12.09a2.17,2.17,0,0,0-.53,1S45.83,24.16,45.93,24Zm-.16.61A1.35,1.35,0,0,0,46,24.2a6.2,6.2,0,0,1,.36-.61.84.84,0,0,0,.14-.2l-.13.11A2.32,2.32,0,0,0,45.77,24.57Zm-.71-1.38.12.17c.11.15.15.2.15.19s0,0,0-.07a1.33,1.33,0,0,1-.16-.26l.12.05a.77.77,0,0,0,.21.05h0s0,0,0,0a3.4,3.4,0,0,1-.43-.64c0-.06-.05-.1-.06-.1a.83.83,0,0,0,0,.14h0a1.11,1.11,0,0,0,.31.5l.11.11-.31-.14a1.81,1.81,0,0,1-.15-.35c0-.06,0-.11-.05-.11a.69.69,0,0,0,0,.15h0a1.26,1.26,0,0,0,.07.25l-.23-.15-.1-.06a.37.37,0,0,0,.1.11A.72.72,0,0,0,45.06,23.19Zm1.13,1.88a1.59,1.59,0,0,0-.29.31c.12,0,.69-.54.84-.84l.06-.15a1.28,1.28,0,0,0-.14.18A5,5,0,0,1,46.19,25.07ZM44.73,26.6h0a.9.9,0,0,0,0-.15,1,1,0,0,0-.09.2,4.33,4.33,0,0,1-.29.54,1.13,1.13,0,0,0-.18.34C44.31,27.53,44.67,26.9,44.73,26.6Zm-.16.79a1.09,1.09,0,0,0,.35,0,4,4,0,0,1,.57,0h.19l-.13,0A2.11,2.11,0,0,0,44.57,27.39Zm-.29.17a1,1,0,0,0,.35,0,3,3,0,0,1,.57,0,1,1,0,0,0,.19,0l-.13,0A2,2,0,0,0,44.28,27.56Zm-.05.07a1.11,1.11,0,0,0,.3,0,3.34,3.34,0,0,1,.5,0l.16,0-.11-.05A1.54,1.54,0,0,0,44.23,27.63Zm.64-.42h0l0,0a2.3,2.3,0,0,0,.36,0,5.36,5.36,0,0,1,.57,0,.54.54,0,0,0,.19,0l-.13,0a2.21,2.21,0,0,0-.78,0,2.63,2.63,0,0,0,.3-.1,6.5,6.5,0,0,1,.7-.22,1,1,0,0,0,.26-.07s-.1,0-.19,0C45.58,27,44.91,27.08,44.87,27.21Zm1-1.72s.08-.17.15-.35.14-.18.23-.31a5,5,0,0,1,.54-.68,1.53,1.53,0,0,0,.2-.22l-.18.11a3.53,3.53,0,0,0-.65.71,4.56,4.56,0,0,1,.25-.6c.11-.23.28-.47.26-.47a4.27,4.27,0,0,0-.77,1.56C45.87,25.34,45.85,25.48,45.85,25.49ZM45.68,24a.47.47,0,0,0,0,.19.54.54,0,0,0,0-.17,4.75,4.75,0,0,1,.32-1.09s0-.09,0-.1-.06.06-.18.31a1.49,1.49,0,0,0-.21.76h0a2.48,2.48,0,0,1,0-.9s0-.08,0-.08,0,.06-.09.28a.84.84,0,0,0,0,.67Zm-.29.62c-.21-.19-.27-.22-.09,0a2.17,2.17,0,0,1,.46.62.58.58,0,0,0,.07.12.28.28,0,0,0,0-.14.75.75,0,0,0-.12-.21.4.4,0,0,0,0-.13,1.53,1.53,0,0,0-.46-.62c-.24-.21-.31-.25-.1,0a2.85,2.85,0,0,1,.51.69h0A2.55,2.55,0,0,0,45.39,24.62Zm-.32.64a.83.83,0,0,0,0,.14S45.06,25.3,45.07,25.26Zm-.16-1.72a3.93,3.93,0,0,1,.72,1c0,.11.1.2.11.19a.77.77,0,0,0,0-.22h0a2.31,2.31,0,0,0-.65-.88C44.72,23.31,44.62,23.26,44.91,23.54Zm.7.73a.42.42,0,0,0,.09.15.34.34,0,0,0,0-.17,1.79,1.79,0,0,0-.5-.68c-.26-.23-.33-.26-.11-.05A2.82,2.82,0,0,1,45.61,24.27Zm-1.33,2.65a.84.84,0,0,0,0,.1,1.65,1.65,0,0,1-.13.29.51.51,0,0,0-.07.17,1,1,0,0,0,.23-.48A.37.37,0,0,0,44.28,26.92Zm-.14.09a.39.39,0,0,0,0,.1,1.33,1.33,0,0,1-.13.28.51.51,0,0,0-.07.18,1.06,1.06,0,0,0,.23-.49A.32.32,0,0,0,44.14,27Zm.21,0a.39.39,0,0,0,0,.1,1.33,1.33,0,0,1-.13.28.51.51,0,0,0-.07.18,1.06,1.06,0,0,0,.23-.49A.32.32,0,0,0,44.35,27ZM46,26.25l-.2.09.44-.07a4,4,0,0,0,.34-.27C46.42,26.06,46.2,26.16,46,26.25Z"
    fill="#038f4c"/>
  <path d="M41.73 24.24 41.73 24.46 42.28 25.29 43.3 24.53 43.3 24.38 42.72 23.6 41.73 24.24" fill="#020204" stroke="#030304" stroke-width="0.1"/>
  <path
    d="M42.8,24.72l-.55-.81c-.16-.07-.34.18-.39.23a.42.42,0,0,1-.13.08l.5.81c.15,0,.23-.14.3-.2a.44.44,0,0,1,.27-.11Z M42.8,24.73l-.53-.81c0-.19.22-.26.28-.3a.44.44,0,0,0,.12-.11l.55.77c0,.17-.2.19-.27.24a.3.3,0,0,0-.15.21Z"
    fill="#fff"
    stroke="#030304"
    stroke-width="0.1"/>
</svg>
