<svg xmlns="http://www.w3.org/2000/svg" width="85" height="50" viewBox="0 0 85 50">
  <rect id="white" width="85" height="50" fill="#fff"/>
  <path id="red" d="M56.91,18.07,85,2.22V0H83.06L51,18.07ZM55.59,32.92,85,49.52V46.2L61.46,32.92ZM0,3.81,25.16,18.07H31L0,.49ZM29.7,32.92,0,49.71V50H5.36L35.59,32.92Z" fill="#bd0636"/>
  <path id="blue" d="M79.18,0H49.42V16.81ZM36.28,0H6.64L36.28,16.81ZM85,18.07V6.6L64.81,18.07Zm0,26.2V32.92H64.81ZM8.33,50h28V34.2Zm41.09,0h28l-28-15.8ZM0,32.92V44.78L20.89,32.92ZM0,18.07H20.89L0,6.2Z" fill="#302d7e"/>
  <polygon id="cross" points="38.91 0 38.91 21.05 0 21.05 0 29.96 38.91 29.96 38.91 50 46.79 50 46.79 29.96 85 29.96 85 21.05 46.79 21.05 46.79 0 38.91 0" fill="#bd0636"/>
</svg>
