<svg xmlns="http://www.w3.org/2000/svg" width="85" height="50" viewBox="0 0 85 50">
  <rect y="0.07" width="85.08" height="49.88" fill="#fff"/>
  <path d="M0,46.12H85.08V50H0Zm0-3.84H85.08V38.44H0Zm0-7.68H85.08V30.75H0Zm0-7.69H85.08V23.06H0Zm0-7.69H85.08V15.38H0Zm0-7.69H85.08V7.69H0ZM0,3.85H85.08V0H0Z" fill="#e40d18"/>
  <rect width="38.63" height="26.91" fill="#203262"/>
  <path id="stars" d="M3.49,3.27l.33,1H4.88L4,4.9l.33,1-.86-.62-.86.62L3,4.9l-.86-.62h1ZM3.16,8.71h-1L3,9.33l-.33,1,.86-.62.86.62L4,9.33l.86-.62H3.82l-.33-1Zm0,4.43h-1l.86.62-.33,1,.86-.62.86.62-.33-1,.86-.62H3.82l-.33-1Zm0,4.44h-1L3,18.2l-.33,1,.86-.62.86.62L4,18.2l.86-.62H3.82l-.33-1Zm0,4.44h-1l.86.62-.33,1L3.49,23l.86.62-.33-1L4.88,22H3.82l-.33-1ZM6.26,6.61H5.2L6,7.23l-.32,1,.85-.62.85.62-.32-1L8,6.61H6.9l-.31-1Zm0,4.43H5.2l.85.62-.32,1,.85-.62.85.62-.32-1L8,11H6.9l-.31-1Zm0,4.44H5.2L6,16.1l-.32,1,.85-.62.85.62-.32-1L8,15.48H6.9l-.31-1Zm0,4.43H5.2l.85.62-.32,1,.85-.62.85.62-.32-1L8,19.92H6.9l-.31-1ZM9.38,4.28H8.32l.86.62-.32,1,.85-.62.86.62-.33-1,.86-.62H10l-.33-1Zm0,4.43H8.32l.86.62-.32,1,.85-.62.86.62-.33-1,.86-.62H10l-.33-1Zm0,4.43H8.32l.86.62-.32,1,.85-.62.86.62-.33-1,.86-.62H10l-.33-1Zm0,4.44H8.32l.86.62-.32,1,.85-.62.86.62-.33-1,.86-.62H10l-.33-1Zm0,4.44H8.32l.86.62-.32,1L9.7,23l.86.62-.33-1,.86-.62H10L9.7,21ZM12.47,6.61H11.41l.86.62-.33,1,.85-.62.86.62-.33-1,.86-.62H13.12l-.32-1Zm0,4.43H11.41l.86.62-.33,1,.85-.62.86.62-.33-1,.86-.62H13.12l-.32-1Zm0,4.44H11.41l.86.62-.33,1,.85-.62.86.62-.33-1,.86-.62H13.12l-.32-1Zm0,4.43H11.41l.86.62-.33,1,.85-.62.86.62-.33-1,.86-.62H13.12l-.32-1ZM15.6,4.28H14.54l.85.62-.32,1,.86-.62.86.62-.34-1,.86-.62h-1l-.33-1Zm0,4.43H14.54l.85.62-.32,1,.86-.62.86.62-.34-1,.86-.62h-1l-.33-1Zm0,4.43H14.54l.85.62-.32,1,.86-.62.86.62-.34-1,.86-.62h-1l-.33-1Zm0,4.44H14.54l.85.62-.32,1,.86-.62.86.62-.34-1,.86-.62h-1l-.33-1Zm0,4.44H14.54l.85.62-.32,1,.86-.62.86.62-.34-1L17.3,22h-1l-.33-1ZM18.68,6.61H17.63l.85.62-.32,1L19,7.62l.85.62-.32-1,.85-.62H19.34l-.32-1Zm0,4.43H17.63l.85.62-.32,1,.85-.62.85.62-.32-1,.85-.62H19.34L19,10Zm0,4.44H17.63l.85.62-.32,1,.85-.62.85.62-.32-1,.85-.62H19.34l-.32-1Zm0,4.43H17.63l.85.62-.32,1,.85-.62.85.62-.32-1,.85-.62H19.34l-.32-1ZM21.81,4.28H20.76l.85.62-.32,1,.85-.62L23,5.9l-.33-1,.85-.62H22.46l-.33-1Zm0,4.43H20.76l.85.62-.32,1,.85-.62.86.62-.33-1,.85-.62H22.46l-.33-1Zm0,4.43H20.76l.85.62-.32,1,.85-.62.86.62-.33-1,.85-.62H22.46l-.33-1Zm0,4.44H20.76l.85.62-.32,1,.85-.62.86.62-.33-1,.85-.62H22.46l-.33-1Zm0,4.44H20.76l.85.62-.32,1,.85-.62.86.62-.33-1,.85-.62H22.46l-.33-1ZM24.9,6.61H23.85l.86.62-.33,1,.85-.62.86.62-.33-1,.86-.62H25.55l-.32-1Zm0,4.43H23.85l.86.62-.33,1,.85-.62.86.62-.33-1,.86-.62H25.55l-.32-1Zm0,4.44H23.85l.86.62-.33,1,.85-.62.86.62-.33-1,.86-.62H25.55l-.32-1Zm0,4.43H23.85l.86.62-.33,1,.85-.62.86.62-.33-1,.86-.62H25.55l-.32-1ZM28,4.28H27l.85.62-.32,1,.85-.62.85.62-.32-1,.85-.62H28.68l-.33-1Zm0,4.43H27l.85.62-.32,1,.85-.62.85.62-.32-1,.85-.62H28.68l-.33-1Zm0,4.43H27l.85.62-.32,1,.85-.62.85.62-.32-1,.85-.62H28.68l-.33-1Zm0,4.44H27l.85.62-.32,1,.85-.62.85.62-.32-1,.85-.62H28.68l-.33-1ZM28,22H27l.85.62-.32,1,.85-.62.85.62-.32-1,.85-.62H28.68l-.33-1ZM31.12,6.61h-1l.85.62-.33,1,.86-.62.85.62-.31-1,.85-.62H31.77l-.32-1Zm0,4.43h-1l.85.62-.33,1,.86-.62.85.62-.31-1,.85-.62H31.77l-.32-1Zm0,4.44h-1l.85.62-.33,1,.86-.62.85.62-.31-1,.85-.62H31.77l-.32-1Zm0,4.43h-1l.85.62-.33,1,.86-.62.85.62-.31-1,.85-.62H31.77l-.32-1ZM34.24,4.28H33.19L34,4.9l-.32,1,.85-.62.86.62-.33-1,.85-.62h-1l-.33-1Zm0,4.43H33.19l.85.62-.32,1,.85-.62.86.62-.33-1,.85-.62h-1l-.33-1Zm0,4.43H33.19l.85.62-.32,1,.85-.62.86.62-.33-1,.85-.62h-1l-.33-1Zm0,4.44H33.19l.85.62-.32,1,.85-.62.86.62-.33-1,.85-.62h-1l-.33-1Zm0,4.44H33.19l.85.62-.32,1,.85-.62.86.62-.33-1,.85-.62h-1l-.33-1Z" fill="#fff"/>
</svg>
