<?xml version="1.0" encoding="UTF-8"?>
<svg xmlns="http://www.w3.org/2000/svg" xmlns:xlink="http://www.w3.org/1999/xlink" width="16px" height="16px" viewBox="0 0 16 16" version="1.1">
<g id="surface1">
<path style=" stroke:none;fill-rule:nonzero;fill:rgb(0%,0%,0%);fill-opacity:1;" d="M 15.78125 8.03125 C 15.78125 9.117188 15.757812 10.210938 15.789062 11.296875 C 15.835938 13.222656 14.625 14.710938 13.085938 15.371094 C 12.464844 15.636719 11.816406 15.777344 11.144531 15.777344 C 9.039062 15.78125 6.933594 15.808594 4.832031 15.769531 C 3.246094 15.738281 1.945312 15.074219 1.007812 13.769531 C 0.519531 13.082031 0.285156 12.300781 0.285156 11.453125 C 0.285156 9.210938 0.285156 6.976562 0.285156 4.734375 C 0.285156 2.90625 1.175781 1.628906 2.757812 0.796875 C 3.445312 0.4375 4.191406 0.285156 4.96875 0.28125 C 7.007812 0.28125 9.054688 0.269531 11.09375 0.289062 C 12.679688 0.300781 14 0.90625 14.976562 2.179688 C 15.519531 2.894531 15.78125 3.710938 15.78125 4.613281 C 15.78125 5.75 15.78125 6.890625 15.78125 8.03125 Z M 1.4375 8.03125 C 1.4375 9.179688 1.4375 10.320312 1.4375 11.46875 C 1.4375 11.980469 1.554688 12.460938 1.820312 12.898438 C 2.519531 14.039062 3.570312 14.59375 4.878906 14.617188 C 6.976562 14.648438 9.074219 14.628906 11.175781 14.621094 C 11.691406 14.621094 12.191406 14.515625 12.65625 14.292969 C 13.925781 13.6875 14.632812 12.722656 14.628906 11.273438 C 14.617188 9.054688 14.625 6.835938 14.625 4.617188 C 14.625 3.988281 14.445312 3.414062 14.074219 2.90625 C 13.355469 1.933594 12.363281 1.457031 11.175781 1.445312 C 9.082031 1.417969 6.988281 1.433594 4.894531 1.4375 C 4.445312 1.4375 4.015625 1.527344 3.597656 1.683594 C 2.445312 2.113281 1.378906 3.195312 1.429688 4.792969 C 1.464844 5.875 1.4375 6.953125 1.4375 8.03125 Z M 1.4375 8.03125 "/>
<path style=" stroke:none;fill-rule:nonzero;fill:rgb(0%,0%,0%);fill-opacity:1;" d="M 8.050781 11.34375 C 6.035156 11.34375 4.410156 9.738281 4.40625 7.738281 C 4.402344 5.769531 6.039062 4.15625 8.042969 4.15625 C 10.054688 4.152344 11.683594 5.761719 11.6875 7.746094 C 11.6875 9.726562 10.058594 11.339844 8.050781 11.34375 Z M 8.050781 10.1875 C 9.421875 10.1875 10.535156 9.089844 10.53125 7.742188 C 10.527344 6.402344 9.414062 5.308594 8.050781 5.308594 C 6.679688 5.308594 5.558594 6.398438 5.558594 7.746094 C 5.5625 9.097656 6.679688 10.191406 8.050781 10.1875 Z M 8.050781 10.1875 "/>
<path style=" stroke:none;fill-rule:nonzero;fill:rgb(0%,0%,0%);fill-opacity:1;" d="M 12.109375 3.0625 C 12.53125 3.0625 12.875 3.421875 12.875 3.863281 C 12.871094 4.304688 12.523438 4.660156 12.101562 4.65625 C 11.6875 4.652344 11.347656 4.296875 11.347656 3.867188 C 11.34375 3.425781 11.6875 3.0625 12.109375 3.0625 Z M 12.109375 3.0625 "/>
</g>
</svg>
