<?xml version="1.0" encoding="UTF-8"?>
<svg xmlns="http://www.w3.org/2000/svg" xmlns:xlink="http://www.w3.org/1999/xlink" width="16px" height="16px" viewBox="0 0 16 16" version="1.1">
<g id="surface1">
<path style=" stroke:none;fill-rule:nonzero;fill:rgb(0%,0%,0%);fill-opacity:1;" d="M 8 1.359375 C 4.332031 1.359375 1.332031 4.351562 1.332031 8.039062 C 1.332031 11.375 3.773438 14.140625 6.960938 14.640625 L 6.960938 9.972656 L 5.265625 9.972656 L 5.265625 8.039062 L 6.960938 8.039062 L 6.960938 6.566406 C 6.960938 4.894531 7.953125 3.972656 9.480469 3.972656 C 10.207031 3.972656 10.964844 4.101562 10.964844 4.101562 L 10.964844 5.746094 L 10.125 5.746094 C 9.300781 5.746094 9.039062 6.261719 9.039062 6.785156 L 9.039062 8.039062 L 10.894531 8.039062 L 10.59375 9.972656 L 9.039062 9.972656 L 9.039062 14.640625 C 12.285156 14.128906 14.675781 11.324219 14.667969 8.039062 C 14.667969 4.351562 11.667969 1.359375 8 1.359375 Z M 8 1.359375 "/>
</g>
</svg>
