<?xml version="1.0" encoding="UTF-8"?>
<svg xmlns="http://www.w3.org/2000/svg" xmlns:xlink="http://www.w3.org/1999/xlink" width="16px" height="16px" viewBox="0 0 16 16" version="1.1">
<g id="surface1">
<path style=" stroke:none;fill-rule:nonzero;fill:rgb(0%,0%,0%);fill-opacity:1;" d="M 14.910156 3.980469 C 14.195312 2.753906 13.226562 1.785156 12.003906 1.070312 C 10.777344 0.355469 9.441406 0 7.992188 0 C 6.542969 0 5.203125 0.355469 3.980469 1.070312 C 2.757812 1.785156 1.785156 2.753906 1.070312 3.980469 C 0.359375 5.203125 0 6.542969 0 7.992188 C 0 9.609375 0.441406 11.074219 1.320312 12.394531 C 2.203125 13.710938 3.359375 14.6875 4.785156 15.316406 C 4.757812 14.574219 4.804688 13.960938 4.921875 13.476562 L 5.953125 9.125 C 5.777344 8.785156 5.691406 8.363281 5.691406 7.855469 C 5.691406 7.265625 5.839844 6.773438 6.140625 6.378906 C 6.4375 5.984375 6.800781 5.785156 7.230469 5.785156 C 7.578125 5.785156 7.847656 5.898438 8.035156 6.128906 C 8.21875 6.359375 8.3125 6.644531 8.3125 6.992188 C 8.3125 7.207031 8.273438 7.46875 8.195312 7.777344 C 8.113281 8.085938 8.011719 8.445312 7.882812 8.851562 C 7.753906 9.253906 7.660156 9.582031 7.605469 9.824219 C 7.507812 10.246094 7.589844 10.609375 7.847656 10.910156 C 8.101562 11.210938 8.441406 11.363281 8.867188 11.363281 C 9.609375 11.363281 10.214844 10.949219 10.691406 10.125 C 11.167969 9.300781 11.40625 8.296875 11.40625 7.117188 C 11.40625 6.207031 11.113281 5.46875 10.523438 4.902344 C 9.9375 4.332031 9.121094 4.046875 8.074219 4.046875 C 6.902344 4.046875 5.953125 4.425781 5.230469 5.175781 C 4.503906 5.929688 4.140625 6.828125 4.140625 7.878906 C 4.140625 8.5 4.316406 9.023438 4.671875 9.449219 C 4.789062 9.585938 4.828125 9.734375 4.785156 9.894531 C 4.773438 9.9375 4.746094 10.042969 4.703125 10.207031 C 4.660156 10.375 4.632812 10.480469 4.621094 10.53125 C 4.566406 10.753906 4.433594 10.820312 4.222656 10.738281 C 3.691406 10.515625 3.285156 10.132812 3.007812 9.582031 C 2.730469 9.035156 2.589844 8.402344 2.589844 7.679688 C 2.589844 7.214844 2.664062 6.75 2.816406 6.285156 C 2.964844 5.820312 3.195312 5.371094 3.511719 4.9375 C 3.828125 4.503906 4.207031 4.121094 4.644531 3.789062 C 5.085938 3.453125 5.621094 3.1875 6.253906 2.988281 C 6.886719 2.785156 7.566406 2.683594 8.292969 2.683594 C 9.277344 2.683594 10.164062 2.902344 10.945312 3.339844 C 11.730469 3.777344 12.328125 4.34375 12.742188 5.035156 C 13.152344 5.730469 13.359375 6.472656 13.359375 7.261719 C 13.359375 8.304688 13.179688 9.242188 12.820312 10.074219 C 12.457031 10.90625 11.949219 11.558594 11.289062 12.035156 C 10.628906 12.507812 9.882812 12.746094 9.042969 12.746094 C 8.617188 12.746094 8.222656 12.648438 7.855469 12.449219 C 7.488281 12.253906 7.234375 12.019531 7.097656 11.75 C 6.785156 12.976562 6.597656 13.707031 6.535156 13.945312 C 6.402344 14.4375 6.132812 15.003906 5.722656 15.648438 C 6.464844 15.871094 7.222656 15.984375 7.992188 15.984375 C 9.441406 15.984375 10.777344 15.625 12.003906 14.910156 C 13.226562 14.195312 14.195312 13.226562 14.910156 12.003906 C 15.625 10.777344 15.980469 9.441406 15.980469 7.992188 C 15.984375 6.542969 15.625 5.203125 14.910156 3.980469 Z M 14.910156 3.980469 "/>
</g>
</svg>
