<?xml version="1.0" encoding="UTF-8"?>
<svg xmlns="http://www.w3.org/2000/svg" xmlns:xlink="http://www.w3.org/1999/xlink" width="16px" height="16px" viewBox="0 0 16 16" version="1.1">
<g id="surface1">
<path style=" stroke:none;fill-rule:nonzero;fill:rgb(0%,0%,0%);fill-opacity:1;" d="M 8.136719 14.03125 C 6.351562 13.976562 4.65625 13.929688 2.960938 13.867188 C 2.59375 13.851562 2.222656 13.792969 1.867188 13.710938 C 1.195312 13.554688 0.734375 13.148438 0.496094 12.492188 C 0.304688 11.960938 0.238281 11.414062 0.1875 10.855469 C 0.078125 9.550781 0.078125 8.242188 0.132812 6.9375 C 0.164062 6.199219 0.179688 5.457031 0.378906 4.742188 C 0.496094 4.3125 0.640625 3.894531 0.988281 3.585938 C 1.351562 3.257812 1.78125 3.058594 2.269531 3.039062 C 3.605469 2.972656 4.941406 2.890625 6.277344 2.878906 C 8.078125 2.859375 9.882812 2.882812 11.679688 2.917969 C 12.460938 2.933594 13.242188 2.976562 14.015625 3.074219 C 14.722656 3.167969 15.25 3.5625 15.53125 4.25 C 15.746094 4.777344 15.828125 5.332031 15.875 5.894531 C 15.996094 7.304688 16 8.710938 15.929688 10.121094 C 15.898438 10.835938 15.863281 11.554688 15.660156 12.253906 C 15.429688 13.054688 14.9375 13.582031 14.117188 13.761719 C 13.800781 13.832031 13.46875 13.855469 13.144531 13.867188 C 11.445312 13.929688 9.746094 13.980469 8.136719 14.03125 Z M 6.410156 10.476562 C 7.835938 9.742188 9.242188 9.007812 10.679688 8.261719 C 9.246094 7.511719 7.835938 6.777344 6.410156 6.03125 C 6.410156 7.523438 6.410156 8.988281 6.410156 10.476562 Z M 6.410156 10.476562 "/>
</g>
</svg>
